<svg width="662" height="417" viewBox="0 0 662 417" fill="none" xmlns="http://www.w3.org/2000/svg">
<path d="M48.9089 293.932C64.3368 282.175 69.6219 263.155 60.7136 251.45C51.8053 239.744 32.0771 239.786 16.6493 251.543" fill="white"/>
<path d="M48.9105 295.623C48.4009 295.623 47.8975 295.393 47.5653 294.956C47 294.214 47.1436 293.153 47.886 292.588C55.0562 287.123 60.1788 279.89 62.3102 272.219C64.3946 264.716 63.3505 257.704 59.37 252.474C55.3895 247.243 48.9068 244.359 41.1302 244.388C33.1738 244.405 24.8432 247.423 17.673 252.888C16.9306 253.453 15.871 253.31 15.3059 252.567C14.7406 251.824 14.8842 250.764 15.6266 250.198C23.3795 244.29 32.4342 241.026 41.1232 241.007C41.1474 241.007 41.1733 241.007 41.1975 241.007C50.029 241.007 57.4345 244.35 62.058 250.425C66.6944 256.518 67.9402 264.579 65.5655 273.124C63.2376 281.501 57.6862 289.369 49.933 295.277C49.6267 295.51 49.2669 295.623 48.9105 295.623Z" fill="black"/>
<path d="M1.69055 279.442C1.18099 279.442 0.677627 279.213 0.345427 278.776C-0.219875 278.033 -0.0762972 276.973 0.666085 276.407L17.0579 263.915C17.8003 263.35 18.8599 263.493 19.4249 264.236C19.9903 264.979 19.8467 266.039 19.1043 266.605L2.71249 279.097C2.40675 279.33 2.04725 279.442 1.69055 279.442Z" fill="black"/>
<path d="M19.684 303.087C19.1745 303.087 18.6711 302.857 18.3389 302.42C17.7736 301.678 17.9172 300.617 18.6596 300.052L35.0516 287.56C35.7943 286.994 36.8534 287.138 37.4187 287.88C37.984 288.623 37.8404 289.683 37.098 290.249L20.706 302.741C20.4002 302.974 20.0407 303.087 19.684 303.087Z" fill="black"/>
<path d="M56.7183 296.344L16.4052 243.373L6.4566 250.954L46.7697 303.925L56.7183 296.344Z" fill="white"/>
<path d="M46.7757 305.606C46.7002 305.606 46.6248 305.601 46.549 305.591C46.1051 305.531 45.703 305.296 45.4317 304.939L5.12091 251.971C4.84952 251.614 4.73072 251.164 4.79097 250.72C4.85093 250.276 5.08488 249.874 5.44157 249.602L15.3898 242.021C16.1322 241.455 17.1916 241.599 17.7569 242.341L58.0679 295.31C58.6332 296.053 58.4896 297.113 57.7473 297.679L47.799 305.26C47.5034 305.486 47.143 305.606 46.7757 305.606ZM8.83198 251.268L47.096 301.547L54.3568 296.013L16.0925 245.735L8.83198 251.268Z" fill="black"/>
<path d="M145.78 120.58C149.105 118.92 158.571 108.935 156.201 101.612C160.092 104.48 168.732 110.857 162.409 118.884" fill="#78B4B7"/>
<path d="M163.482 119.818C163.239 120.098 162.895 120.272 162.525 120.302C162.155 120.332 161.788 120.216 161.502 119.979C161.216 119.742 161.034 119.403 160.995 119.034C160.955 118.665 161.062 118.295 161.292 118.003C162.818 116.067 163.433 114.197 163.175 112.29C162.773 109.323 160.291 106.713 157.976 104.78C157.5 112.244 149.594 120.266 146.416 121.853C146.078 122.021 145.687 122.049 145.33 121.929C144.972 121.809 144.676 121.553 144.507 121.215C144.338 120.877 144.311 120.487 144.43 120.129C144.55 119.771 144.806 119.476 145.144 119.307C148.325 117.72 156.872 108.303 154.848 102.049C154.755 101.763 154.756 101.454 154.849 101.168C154.943 100.882 155.125 100.633 155.37 100.458C155.614 100.282 155.907 100.188 156.209 100.19C156.51 100.192 156.802 100.289 157.045 100.468C159.917 102.585 165.265 106.526 165.994 111.91C166.356 114.584 165.526 117.226 163.527 119.764C163.512 119.783 163.498 119.801 163.482 119.818Z" fill="#78B4B7"/>
<path d="M108.127 236.204C101.202 238.975 95.5078 235.927 93.4651 239.978C91.335 244.199 87.6588 248.84 87.6588 248.84C81.3903 254.366 98.1173 263.777 103.951 259.433C105.337 258.401 106.147 257.1 106.374 255.759L111.204 253.256C113.296 252.339 113.685 249.505 113.685 249.505L108.127 236.204Z" fill="white"/>
<path d="M111.203 254.919C110.821 254.919 110.45 254.788 110.154 254.548C109.857 254.307 109.652 253.971 109.574 253.597C109.495 253.223 109.548 252.833 109.723 252.494C109.899 252.154 110.186 251.885 110.536 251.732C111.716 251.215 112.036 249.287 112.039 249.268C112.103 248.834 112.336 248.443 112.688 248.18C113.039 247.917 113.479 247.804 113.914 247.865C114.348 247.926 114.74 248.156 115.006 248.506C115.271 248.855 115.388 249.295 115.33 249.73C115.277 250.115 114.731 253.524 111.868 254.778C111.658 254.87 111.432 254.918 111.203 254.919Z" fill="black"/>
<path d="M98 247L93.5 251.5L88 255L99 260L105.5 258.5L106 253.5L98 247Z" fill="white"/>
<path d="M97.3428 246.734C103.159 249.505 105.537 252.046 105.929 252.83C107.037 255.046 106.353 257.644 103.95 259.433C98.1161 263.777 81.389 254.366 87.6587 248.84L97.3428 246.734Z" fill="white"/>
<path d="M100.016 262.195C95.0247 262.195 88.996 259.133 86.3294 255.841C83.9475 252.902 84.0345 249.818 86.5593 247.592C86.7717 247.405 87.0283 247.275 87.3049 247.215L96.9901 245.109C97.3498 245.031 97.7252 245.075 98.0575 245.233C104.204 248.162 106.832 250.919 107.415 252.087C108.905 255.068 107.911 258.557 104.942 260.768C103.598 261.768 101.879 262.195 100.016 262.195ZM88.462 250.366C87.9569 250.905 87.4273 251.915 88.9118 253.747C91.8665 257.395 99.9146 260.365 102.958 258.1C104.642 256.846 105.211 255.111 104.443 253.573C104.191 253.13 102.204 250.971 97.136 248.48L88.462 250.366Z" fill="black"/>
<path d="M108.127 236.205C101.202 238.975 95.5077 235.927 93.4651 239.978C91.335 244.199 87.6588 248.84 87.6588 248.84C87.6588 248.84 87.1738 251.597 90.1299 251.909C93.8047 252.297 97.3634 246.783 97.3634 246.783L103.331 245.627" fill="white"/>
<path d="M90.5025 253.591C90.3195 253.592 90.1365 253.582 89.9544 253.564C88.2372 253.382 87.2928 252.57 86.8034 251.921C85.7199 250.481 85.9869 248.745 86.021 248.552C86.0689 248.28 86.1838 248.024 86.3553 247.807C86.391 247.762 89.9558 243.245 91.981 239.228C93.5597 236.097 96.7171 236.01 99.7715 235.924C102.081 235.859 104.699 235.785 107.508 234.661C107.712 234.577 107.929 234.535 108.149 234.536C108.368 234.537 108.585 234.582 108.788 234.667C108.99 234.753 109.173 234.878 109.327 235.034C109.481 235.191 109.602 235.377 109.683 235.581C109.765 235.785 109.805 236.003 109.802 236.223C109.799 236.442 109.752 236.659 109.665 236.861C109.577 237.062 109.451 237.244 109.293 237.397C109.134 237.549 108.948 237.668 108.743 237.748C105.384 239.092 102.323 239.179 99.8648 239.248C96.7309 239.336 95.5779 239.478 94.9481 240.727C93.1254 244.339 90.2752 248.165 89.298 249.438C89.3096 249.613 89.367 249.781 89.4642 249.926C89.695 250.134 89.9929 250.251 90.3031 250.256C92.2973 250.466 94.9816 247.398 95.9676 245.879C96.0896 245.692 96.2481 245.53 96.4337 245.405C96.6193 245.28 96.8281 245.193 97.0478 245.151L103.015 243.996C103.23 243.952 103.452 243.951 103.667 243.993C103.883 244.036 104.088 244.12 104.27 244.243C104.453 244.365 104.61 244.522 104.731 244.705C104.853 244.888 104.937 245.093 104.978 245.309C105.02 245.525 105.019 245.746 104.974 245.962C104.93 246.177 104.843 246.381 104.719 246.562C104.595 246.744 104.437 246.899 104.252 247.019C104.068 247.138 103.862 247.22 103.646 247.26L98.3459 248.285C97.2231 249.84 94.1397 253.591 90.5025 253.591Z" fill="black"/>
<path d="M297.161 295.74C294.332 288.178 273.126 246.77 263.393 227.876C263.337 229.351 262.804 230.767 261.875 231.913C255.441 239.842 236.489 258.665 200.599 260.461C199.281 260.527 198.127 260.429 197.254 259.639C197.186 261.256 197.025 262.869 196.773 264.468C194.261 280.848 201.749 322.283 201.749 322.283C201.749 322.283 190.68 333.186 175.17 354.522C169.826 361.873 164.442 372.736 164.442 372.736L178.672 383.607C178.672 383.607 219.746 342.681 226.408 332.078C232.433 322.491 233.228 318.5 246.101 280.305L274.711 315.002C272.732 333.305 273.117 352.91 278.331 383.891H296.564C299.256 352.908 299.31 353.044 301.137 331.467C303.097 308.329 300.388 304.367 297.161 295.74Z" fill="#C4D0DF"/>
<path d="M296.565 385.555H278.332C277.939 385.555 277.559 385.416 277.259 385.162C276.959 384.908 276.758 384.557 276.693 384.169C271.934 355.891 270.852 335.931 272.986 315.523L246.72 283.67C245.063 288.598 243.625 292.897 242.332 296.764C234.405 320.476 232.976 324.749 227.814 332.963C221.128 343.603 181.527 383.109 179.845 384.785C179.56 385.069 179.182 385.24 178.781 385.266C178.38 385.293 177.983 385.173 177.663 384.929L163.434 374.057C163.127 373.823 162.912 373.489 162.824 373.113C162.736 372.738 162.782 372.343 162.954 371.997C163.175 371.549 168.461 360.924 173.826 353.543C187.185 335.166 197.403 324.353 199.962 321.726C198.878 315.556 192.775 279.569 195.131 264.214C195.373 262.678 195.527 261.129 195.594 259.574C195.606 259.258 195.708 258.952 195.888 258.692C196.068 258.431 196.318 258.228 196.61 258.105C196.901 257.982 197.222 257.945 197.534 257.999C197.845 258.052 198.136 258.193 198.37 258.405C198.747 258.747 199.349 258.857 200.517 258.799C235.702 257.04 254.246 238.678 260.585 230.866C261.29 229.999 261.693 228.927 261.733 227.811C261.748 227.444 261.883 227.092 262.119 226.811C262.354 226.529 262.676 226.333 263.034 226.254C263.392 226.174 263.767 226.216 264.099 226.371C264.431 226.527 264.702 226.789 264.871 227.115C276.319 249.339 295.939 287.731 298.717 295.158C299.026 295.983 299.33 296.765 299.626 297.526C302.511 304.952 304.596 310.319 302.794 331.608C301.773 343.673 301.314 348.843 300.621 356.672C300.081 362.777 299.408 370.374 298.221 384.037C298.185 384.451 297.995 384.837 297.688 385.118C297.382 385.399 296.981 385.555 296.565 385.555ZM279.739 382.23H295.042C296.147 369.511 296.79 362.254 297.31 356.379C298.003 348.554 298.461 343.385 299.482 331.327C301.22 310.807 299.252 305.742 296.528 298.732C296.228 297.959 295.919 297.164 295.605 296.325C292.957 289.248 273.687 251.524 263.735 232.173C263.56 232.447 263.37 232.71 263.166 232.962C256.546 241.121 237.204 260.295 200.682 262.122C200.038 262.165 199.392 262.143 198.752 262.058C198.669 262.919 198.555 263.808 198.415 264.721C195.973 280.64 203.309 321.576 203.384 321.988C203.432 322.255 203.414 322.529 203.332 322.787C203.251 323.044 203.107 323.279 202.915 323.468C202.804 323.577 191.748 334.545 176.514 355.5C172.351 361.227 168.106 369.232 166.55 372.255L178.524 381.403C184.915 375 219.096 340.589 225.001 331.194C229.952 323.317 231.361 319.103 239.182 295.711C240.717 291.12 242.457 285.916 244.527 279.775C244.622 279.494 244.79 279.243 245.014 279.049C245.238 278.855 245.51 278.725 245.801 278.671C246.092 278.617 246.393 278.643 246.671 278.744C246.949 278.846 247.196 279.02 247.384 279.248L275.995 313.944C276.136 314.115 276.242 314.313 276.305 314.525C276.369 314.738 276.389 314.961 276.365 315.181C274.203 335.175 275.178 354.684 279.739 382.23Z" fill="#C4D0DF"/>
<path d="M248.573 285.638C248.318 285.638 248.067 285.579 247.838 285.466C247.609 285.353 247.409 285.189 247.254 284.987C247.099 284.784 246.992 284.549 246.942 284.298C246.893 284.048 246.901 283.79 246.967 283.543L250.114 271.822C250.228 271.396 250.507 271.033 250.889 270.813C251.27 270.593 251.724 270.533 252.15 270.648C252.575 270.762 252.938 271.041 253.158 271.423C253.379 271.805 253.438 272.259 253.324 272.685L250.177 284.406C250.082 284.759 249.874 285.071 249.584 285.294C249.294 285.516 248.939 285.637 248.573 285.638Z" fill="black"/>
<path d="M169.906 378.629C169.594 378.629 169.288 378.541 169.024 378.375C168.759 378.208 168.547 377.971 168.411 377.689C168.275 377.408 168.221 377.094 168.256 376.783C168.291 376.472 168.412 376.178 168.606 375.933C178.672 363.247 188.676 352.969 196.713 344.711C205.429 335.756 212.313 328.683 214.039 323.769C215.411 319.862 214.569 315.645 213.295 309.261C211.467 300.102 208.966 287.56 210.905 266.533C210.946 266.094 211.159 265.689 211.498 265.407C211.837 265.125 212.274 264.989 212.713 265.03C213.152 265.07 213.556 265.283 213.838 265.623C214.12 265.962 214.256 266.399 214.215 266.838C212.319 287.384 214.767 299.652 216.555 308.61C217.887 315.283 218.848 320.105 217.175 324.871C215.206 330.477 208.448 337.421 199.094 347.031C191.109 355.236 181.171 365.447 171.209 378.001C171.053 378.198 170.855 378.356 170.63 378.465C170.404 378.574 170.157 378.63 169.906 378.629Z" fill="black"/>
<path d="M211.884 280.879C211.508 280.879 211.143 280.751 210.849 280.517C210.554 280.283 210.348 279.955 210.264 279.588C210.18 279.222 210.223 278.837 210.385 278.498C210.548 278.158 210.821 277.884 211.16 277.72C224.38 271.324 226.358 261.534 226.436 261.12C226.518 260.69 226.767 260.309 227.128 260.061C227.489 259.812 227.934 259.717 228.365 259.795C228.796 259.874 229.179 260.119 229.43 260.478C229.682 260.838 229.781 261.282 229.706 261.714C229.62 262.193 227.433 273.54 212.607 280.714C212.381 280.823 212.135 280.879 211.884 280.879Z" fill="black"/>
<path d="M273.142 317.564C272.848 317.564 272.559 317.486 272.305 317.338C272.051 317.19 271.841 316.977 271.696 316.721C271.551 316.465 271.476 316.175 271.48 315.88C271.484 315.586 271.565 315.298 271.717 315.046L275.982 307.929C276.209 307.551 276.576 307.278 277.004 307.171C277.215 307.118 277.436 307.108 277.651 307.14C277.867 307.172 278.075 307.246 278.262 307.358C278.449 307.471 278.612 307.619 278.742 307.794C278.872 307.97 278.966 308.169 279.019 308.381C279.072 308.593 279.083 308.813 279.051 309.029C279.019 309.245 278.944 309.452 278.832 309.639L277.063 312.591L280.622 311.206C281.033 311.046 281.491 311.056 281.894 311.233C282.297 311.411 282.614 311.742 282.774 312.153C282.933 312.564 282.923 313.021 282.746 313.425C282.568 313.828 282.238 314.145 281.827 314.305L273.743 317.45C273.551 317.525 273.348 317.563 273.142 317.564Z" fill="black"/>
<path d="M272.164 249.279C262.786 249.279 258.042 245.515 257.832 245.345C257.489 245.068 257.27 244.666 257.223 244.227C257.177 243.789 257.306 243.35 257.583 243.007C257.86 242.664 258.262 242.445 258.7 242.398C259.138 242.351 259.577 242.481 259.92 242.758C259.953 242.783 261.121 243.689 263.4 244.522C265.526 245.299 269.082 246.17 273.956 245.905C274.396 245.881 274.828 246.033 275.156 246.327C275.484 246.621 275.682 247.034 275.706 247.475C275.73 247.915 275.578 248.347 275.284 248.675C274.989 249.003 274.577 249.201 274.137 249.225C273.459 249.262 272.801 249.28 272.164 249.279Z" fill="black"/>
<path d="M206.465 325.294C206.287 325.294 206.11 325.265 205.941 325.209L200.053 323.25C199.748 323.149 199.48 322.962 199.279 322.711C199.079 322.46 198.956 322.157 198.924 321.838C198.892 321.518 198.953 321.197 199.1 320.911C199.247 320.626 199.473 320.39 199.752 320.23L206.537 316.347C206.92 316.129 207.373 316.071 207.798 316.187C208.223 316.304 208.584 316.584 208.803 316.966C209.022 317.348 209.08 317.802 208.964 318.227C208.849 318.652 208.569 319.014 208.187 319.233L204.63 321.269L206.989 322.054C207.364 322.179 207.682 322.432 207.887 322.77C208.092 323.108 208.17 323.508 208.107 323.898C208.044 324.288 207.844 324.643 207.543 324.899C207.242 325.155 206.86 325.295 206.465 325.295V325.294Z" fill="black"/>
<path d="M163.814 372.256C163.814 372.256 155.442 380.693 150.72 387.861C150.514 388.174 150.318 388.474 150.131 388.763L146.406 394.305L169.999 415.338H191.685C191.769 413.705 191.724 412.067 191.553 410.441C191.175 407.053 191.179 402.99 183.197 399.33C171.291 393.871 179.046 383.896 179.046 383.896L163.814 372.256Z" fill="white"/>
<path d="M191.687 417H169.999C169.591 417 169.198 416.85 168.893 416.579L145.301 395.545C145.001 395.278 144.808 394.911 144.758 394.512C144.707 394.113 144.803 393.71 145.028 393.376L148.744 387.846C148.931 387.558 149.128 387.258 149.333 386.946C154.092 379.722 162.289 371.434 162.635 371.085C162.92 370.798 163.298 370.625 163.701 370.597C164.104 370.57 164.503 370.69 164.823 370.935L180.056 382.573C180.231 382.706 180.377 382.873 180.487 383.063C180.597 383.253 180.668 383.463 180.696 383.681C180.724 383.898 180.709 384.119 180.651 384.331C180.593 384.543 180.494 384.741 180.359 384.915C180.334 384.948 177.5 388.695 178.407 392.356C178.953 394.562 180.798 396.399 183.89 397.817C192.31 401.678 192.795 406.326 193.149 409.72C193.167 409.901 193.186 410.08 193.206 410.256C193.388 411.979 193.434 413.715 193.344 415.445C193.317 415.866 193.13 416.261 192.823 416.55C192.515 416.839 192.109 417 191.687 417ZM170.632 413.675H190.065C190.065 412.656 190.011 411.638 189.903 410.625C189.882 410.44 189.863 410.254 189.843 410.065C189.513 406.9 189.201 403.91 182.506 400.84C178.436 398.974 175.97 396.379 175.174 393.13C174.293 389.527 175.764 386.121 176.818 384.282L163.98 374.473C161.626 376.933 155.725 383.285 152.108 388.775C151.905 389.084 151.711 389.381 151.527 389.666C151.521 389.674 151.516 389.682 151.511 389.689L148.595 394.027L170.632 413.675Z" fill="black"/>
<path d="M191.455 410.877H172.918C172.508 410.877 172.113 410.725 171.808 410.452L149.021 390C148.693 389.706 148.496 389.293 148.472 388.853C148.448 388.412 148.6 387.98 148.894 387.652C149.189 387.324 149.601 387.126 150.041 387.102C150.481 387.079 150.913 387.231 151.241 387.525L173.554 407.552H191.455C191.895 407.552 192.318 407.727 192.63 408.039C192.941 408.35 193.116 408.773 193.116 409.214C193.116 409.655 192.941 410.078 192.63 410.39C192.318 410.702 191.895 410.877 191.455 410.877Z" fill="black"/>
<path d="M159.344 398.696C159.058 398.696 158.777 398.622 158.528 398.481C158.279 398.34 158.07 398.137 157.923 397.891C157.775 397.646 157.693 397.367 157.685 397.081C157.677 396.794 157.743 396.511 157.876 396.258C162.668 387.156 155.816 381.819 155.522 381.597C155.169 381.333 154.935 380.94 154.872 380.503C154.808 380.067 154.921 379.623 155.185 379.27C155.448 378.917 155.842 378.683 156.278 378.619C156.714 378.556 157.157 378.669 157.51 378.932C159.196 380.298 160.56 382.017 161.507 383.969C162.953 386.937 164.006 391.747 160.817 397.807C160.676 398.075 160.464 398.3 160.205 398.457C159.945 398.614 159.647 398.696 159.344 398.696Z" fill="black"/>
<path d="M177.87 410.877C177.563 410.877 177.262 410.792 177.001 410.631C176.74 410.471 176.528 410.241 176.389 409.968C176.25 409.694 176.19 409.388 176.214 409.082C176.239 408.776 176.347 408.483 176.528 408.235L183.233 399.026C183.493 398.67 183.883 398.431 184.318 398.363C184.754 398.294 185.198 398.402 185.555 398.661C185.911 398.921 186.15 399.311 186.218 399.747C186.286 400.183 186.179 400.628 185.92 400.984L179.214 410.193C179.06 410.405 178.858 410.578 178.624 410.697C178.39 410.816 178.132 410.877 177.87 410.877Z" fill="black"/>
<path d="M177.06 389.489C176.973 389.489 176.887 389.483 176.801 389.469L171.695 388.672C171.262 388.601 170.874 388.362 170.617 388.007C170.359 387.651 170.252 387.208 170.32 386.774C170.388 386.34 170.624 385.951 170.978 385.691C171.332 385.431 171.774 385.321 172.208 385.387L177.314 386.184C177.728 386.248 178.102 386.466 178.362 386.794C178.622 387.123 178.748 387.537 178.716 387.954C178.684 388.372 178.495 388.762 178.188 389.047C177.881 389.331 177.478 389.489 177.06 389.489Z" fill="black"/>
<path d="M172.174 395.712C171.751 395.711 171.344 395.549 171.036 395.259C170.729 394.968 170.543 394.571 170.518 394.149C170.493 393.726 170.629 393.31 170.9 392.985C171.171 392.66 171.556 392.45 171.976 392.399L176.805 391.812C177.241 391.762 177.679 391.887 178.023 392.158C178.368 392.43 178.591 392.827 178.643 393.263C178.696 393.699 178.575 394.138 178.306 394.484C178.037 394.83 177.641 395.056 177.206 395.113L172.377 395.7C172.309 395.708 172.242 395.712 172.174 395.712Z" fill="black"/>
<path d="M175.54 401.706C175.169 401.706 174.808 401.582 174.515 401.353C174.223 401.124 174.016 400.804 173.926 400.443C173.837 400.083 173.871 399.702 174.023 399.363C174.175 399.024 174.436 398.746 174.765 398.573L179.431 396.111C179.821 395.905 180.277 395.863 180.698 395.993C181.119 396.123 181.471 396.415 181.677 396.806C181.882 397.196 181.925 397.651 181.795 398.073C181.664 398.494 181.372 398.846 180.982 399.052L176.316 401.514C176.077 401.64 175.81 401.706 175.54 401.706Z" fill="black"/>
<path d="M278.116 383.892C278.116 383.892 276.412 398.554 277.225 406.757V412.881H322.244C322.244 412.881 322.544 408.706 322.33 406.452C322.046 403.455 320.585 401.236 313.006 399.585C296.815 396.054 297.404 383.892 297.404 383.892H278.116Z" fill="white"/>
<path d="M322.244 414.542H277.225C276.785 414.542 276.362 414.367 276.05 414.055C275.739 413.743 275.564 413.32 275.564 412.879V406.837C274.762 398.539 276.395 384.303 276.465 383.7C276.512 383.295 276.707 382.921 277.011 382.65C277.315 382.379 277.709 382.229 278.116 382.229H297.405C297.63 382.229 297.852 382.275 298.059 382.364C298.266 382.453 298.453 382.582 298.608 382.745C298.763 382.908 298.884 383.101 298.962 383.312C299.04 383.523 299.075 383.748 299.064 383.973C299.048 384.404 298.826 394.792 313.359 397.959C320.585 399.534 323.565 401.871 323.984 406.294C324.208 408.659 323.914 412.823 323.901 412.999C323.871 413.418 323.683 413.81 323.376 414.096C323.069 414.382 322.664 414.542 322.244 414.542ZM278.887 411.217H320.675C320.767 409.681 320.767 408.142 320.675 406.607C320.518 404.946 320.322 402.879 312.651 401.207C307.694 400.126 301.072 397.514 297.67 391.204C296.722 389.448 296.104 387.534 295.845 385.555H279.61C279.212 389.449 278.242 400.162 278.879 406.593C278.884 406.648 278.887 406.702 278.887 406.757V411.217Z" fill="black"/>
<path d="M322.356 408.418H277.226C276.785 408.418 276.362 408.243 276.05 407.931C275.739 407.62 275.564 407.197 275.564 406.756C275.564 406.315 275.739 405.892 276.05 405.58C276.362 405.268 276.785 405.093 277.226 405.093H322.356C322.797 405.093 323.219 405.268 323.531 405.58C323.843 405.892 324.018 406.315 324.018 406.756C324.018 407.197 323.843 407.62 323.531 407.931C323.219 408.243 322.797 408.418 322.356 408.418Z" fill="black"/>
<path d="M290.276 408.419C289.894 408.418 289.523 408.286 289.226 408.044C288.93 407.801 288.726 407.464 288.65 407.089C287.951 403.658 285.82 400.979 282.314 399.129C280.631 398.246 278.821 397.629 276.949 397.3C276.733 397.27 276.524 397.199 276.336 397.088C276.148 396.978 275.983 396.832 275.851 396.658C275.719 396.484 275.622 396.286 275.567 396.075C275.512 395.864 275.498 395.644 275.528 395.427C275.558 395.211 275.63 395.003 275.74 394.814C275.85 394.626 275.996 394.461 276.17 394.329C276.344 394.197 276.542 394.1 276.753 394.045C276.964 393.989 277.184 393.976 277.4 394.006C279.619 394.378 281.766 395.097 283.762 396.135C288.189 398.439 291.005 401.998 291.905 406.427C291.954 406.668 291.949 406.918 291.89 407.157C291.831 407.397 291.719 407.62 291.563 407.811C291.407 408.002 291.211 408.156 290.988 408.262C290.765 408.367 290.522 408.422 290.275 408.422L290.276 408.419Z" fill="black"/>
<path d="M312.928 408.418C312.487 408.418 312.065 408.243 311.753 407.932C311.441 407.62 311.266 407.197 311.266 406.756V399.582C311.266 399.141 311.441 398.719 311.753 398.407C312.065 398.095 312.487 397.92 312.928 397.92C313.369 397.92 313.792 398.095 314.103 398.407C314.415 398.719 314.59 399.141 314.59 399.582V406.756C314.59 407.197 314.415 407.62 314.103 407.932C313.792 408.243 313.369 408.418 312.928 408.418Z" fill="black"/>
<path d="M293.235 392.697C292.85 392.697 292.477 392.564 292.179 392.319C291.881 392.074 291.678 391.734 291.603 391.356C291.529 390.977 291.588 390.585 291.771 390.246C291.954 389.906 292.249 389.641 292.605 389.495L297.793 387.37C297.996 387.28 298.215 387.232 298.437 387.228C298.659 387.224 298.88 387.265 299.086 387.348C299.292 387.431 299.48 387.554 299.637 387.711C299.795 387.867 299.919 388.054 300.004 388.26C300.088 388.466 300.13 388.686 300.128 388.908C300.125 389.131 300.078 389.35 299.989 389.554C299.901 389.758 299.772 389.942 299.611 390.095C299.45 390.248 299.26 390.367 299.052 390.446L293.865 392.571C293.665 392.654 293.451 392.697 293.235 392.697Z" fill="black"/>
<path d="M297.427 398.303C297.1 398.303 296.78 398.207 296.508 398.026C296.235 397.846 296.022 397.588 295.895 397.287C295.768 396.986 295.733 396.654 295.793 396.332C295.854 396.011 296.008 395.714 296.236 395.48L299.742 391.881C299.895 391.725 300.076 391.6 300.277 391.514C300.477 391.428 300.693 391.382 300.911 391.379C301.129 391.377 301.346 391.417 301.549 391.498C301.751 391.579 301.936 391.699 302.092 391.851C302.249 392.004 302.373 392.185 302.459 392.386C302.546 392.587 302.591 392.802 302.594 393.02C302.597 393.239 302.557 393.456 302.476 393.658C302.395 393.861 302.275 394.046 302.123 394.202L298.617 397.802C298.462 397.961 298.277 398.087 298.073 398.173C297.869 398.259 297.649 398.304 297.427 398.303Z" fill="black"/>
<path d="M303.291 401.909C303.005 401.909 302.725 401.835 302.476 401.695C302.227 401.554 302.019 401.352 301.871 401.108C301.723 400.864 301.64 400.585 301.631 400.3C301.622 400.014 301.687 399.731 301.819 399.478L303.713 395.84C303.917 395.449 304.268 395.155 304.688 395.022C305.109 394.89 305.564 394.93 305.955 395.134C306.346 395.338 306.64 395.688 306.772 396.109C306.905 396.53 306.865 396.986 306.661 397.377L304.766 401.014C304.626 401.284 304.414 401.51 304.154 401.668C303.894 401.826 303.595 401.909 303.291 401.909Z" fill="black"/>
<path d="M238.047 114.996C238.047 113.008 235.633 110.795 234.973 107.991C234.012 103.915 232.794 96.218 242.306 97.3882C250.964 98.4531 253.669 99.2447 253.975 103.813C254.3 108.665 251.958 110.405 251.958 114.144" fill="white"/>
<path d="M262.635 224.451L258.721 216.865C259.026 218.844 258.905 220.631 258.201 222.109C248.923 241.623 203.975 254.769 194.558 251.167L194.549 251.164V251.167L195.907 256.912C196.639 260.223 198.388 260.571 200.601 260.461C236.49 258.665 255.443 239.842 261.876 231.913C262.714 230.878 263.232 229.621 263.367 228.295C263.502 226.97 263.247 225.634 262.635 224.451Z" fill="black"/>
<path d="M200.042 262.138C197.739 262.138 195.2 261.415 194.283 257.272L192.932 251.549C192.862 251.253 192.874 250.943 192.968 250.654C193.062 250.364 193.233 250.106 193.464 249.907C193.694 249.708 193.974 249.576 194.274 249.525C194.574 249.475 194.883 249.507 195.165 249.62C199.102 251.081 211.598 249.287 225.83 243.757C241.607 237.625 252.859 229.475 256.701 221.396C257.221 220.302 257.348 218.863 257.079 217.119C257.019 216.729 257.1 216.33 257.306 215.994C257.513 215.658 257.832 215.407 258.207 215.285C258.582 215.162 258.988 215.178 259.353 215.328C259.718 215.478 260.018 215.753 260.198 216.103L264.112 223.689C264.872 225.16 265.188 226.82 265.02 228.467C264.852 230.114 264.207 231.676 263.166 232.962C256.546 241.121 237.204 260.294 200.682 262.122C200.473 262.132 200.258 262.138 200.042 262.138ZM196.764 253.316L197.523 256.53C198.009 258.729 198.69 258.892 200.517 258.8C235.702 257.04 254.246 238.678 260.586 230.866C261.22 230.081 261.612 229.128 261.714 228.125C261.815 227.121 261.622 226.109 261.158 225.213L259.807 222.593C259.773 222.67 259.738 222.747 259.702 222.823C253.734 235.375 234.868 243.811 227.033 246.856C215.138 251.48 203.244 253.953 196.764 253.316Z" fill="black"/>
<path d="M243.522 190.521C236.916 182.258 232.192 174.837 223.671 167.714C237.834 162.552 252.24 159.275 255.008 151.489C257.776 143.703 251.956 114.143 251.956 114.143L238.047 114.995C238.047 114.995 235.97 130.866 235.97 142.029C235.97 142.029 225.569 143.57 216.57 144.613C201.42 146.369 195.851 149.592 195.851 149.592L193.557 149.146C187.439 147.986 182.035 151.842 182.035 151.842C181.207 152.353 180.45 152.969 179.782 153.676V153.678C175.292 153.924 170.896 155.067 166.854 157.037C159.391 160.599 155.36 165.329 155.36 165.329C153.485 167.65 152.579 169.632 152.295 171.309H152.291C152.291 171.309 149.837 181.907 155.719 185.884C149.207 195.947 142.487 223.181 142.487 223.181L108.132 236.214L113.599 249.41C113.599 249.41 133.143 247.815 143.964 244.635C156.946 240.819 166.088 241.222 173.231 217.362L173.28 217.295C181.624 223.357 188.849 231.408 189.664 237.119C191.511 250.06 194.558 251.168 194.558 251.168C203.975 254.77 248.923 241.624 258.201 222.11C261.809 214.521 250.169 198.833 243.522 190.521Z" fill="white"/>
<path d="M198.957 253.415C196.893 253.415 195.192 253.19 193.964 252.72C192.792 252.294 189.813 249.924 188.019 237.354C187.385 232.911 181.784 225.972 174.142 220.023C167.639 240.022 159.236 242.254 148.693 245.056C147.317 245.422 145.895 245.8 144.432 246.23C133.573 249.422 114.539 251.002 113.734 251.067C113.383 251.097 113.032 251.014 112.732 250.83C112.432 250.647 112.197 250.373 112.063 250.047L106.596 236.851C106.511 236.645 106.468 236.424 106.47 236.202C106.471 235.979 106.518 235.759 106.606 235.555C106.694 235.35 106.823 235.166 106.983 235.012C107.144 234.858 107.334 234.738 107.543 234.659L141.088 221.934C142.304 217.152 148.314 194.271 154.324 184.981C154.564 184.611 154.941 184.351 155.372 184.259C155.803 184.166 156.253 184.249 156.623 184.489C156.993 184.728 157.252 185.105 157.345 185.536C157.437 185.968 157.354 186.418 157.115 186.788C150.828 196.504 144.167 223.309 144.101 223.579C144.036 223.841 143.909 224.082 143.731 224.284C143.552 224.485 143.328 224.64 143.076 224.735L110.323 237.161L114.667 247.646C119.068 247.241 134.491 245.685 143.495 243.039C144.999 242.595 146.443 242.213 147.839 241.842C165.579 237.127 167.99 229.074 171.639 216.884C171.694 216.704 171.778 216.534 171.889 216.382L171.938 216.315C172.197 215.959 172.587 215.72 173.022 215.652C173.457 215.583 173.901 215.69 174.258 215.949C181.496 221.208 190.306 229.847 191.31 236.884C192.769 247.103 194.943 249.366 195.278 249.658C199.333 251.045 211.73 249.235 225.83 243.756C241.608 237.624 252.86 229.473 256.701 221.394C258.012 218.638 256.821 213.797 253.256 207.395C250.739 202.874 247.131 197.694 242.225 191.559C240.657 189.598 239.191 187.679 237.772 185.823C233.25 179.905 228.978 174.315 222.606 168.989C222.382 168.801 222.211 168.558 222.111 168.284C222.011 168.01 221.985 167.714 222.035 167.426C222.085 167.138 222.211 166.869 222.398 166.645C222.586 166.421 222.829 166.251 223.103 166.151C225.798 165.169 228.5 164.255 231.114 163.37C241.581 159.83 251.468 156.486 253.443 150.931C255.472 145.223 252.298 124.92 250.601 115.892L239.526 116.57C239.033 120.637 237.633 132.982 237.633 142.028C237.633 142.427 237.49 142.812 237.23 143.114C236.969 143.416 236.609 143.614 236.215 143.673C236.111 143.688 225.685 145.23 216.763 146.264C202.272 147.944 196.732 151.002 196.677 151.035C196.296 151.244 195.848 151.296 195.429 151.178C195.01 151.061 194.653 150.784 194.437 150.406C194.22 150.029 194.159 149.582 194.268 149.16C194.378 148.739 194.648 148.377 195.02 148.153C195.26 148.014 201.065 144.737 216.38 142.962C223.318 142.158 231.177 141.044 234.321 140.59C234.481 129.565 236.38 114.933 236.4 114.78C236.45 114.397 236.632 114.044 236.914 113.78C237.196 113.517 237.561 113.36 237.946 113.336L251.856 112.484C252.257 112.461 252.653 112.584 252.971 112.83C253.29 113.075 253.508 113.428 253.587 113.823C254.192 116.894 259.413 144.061 256.574 152.046C254.06 159.12 243.92 162.55 232.179 166.521C230.449 167.106 228.679 167.705 226.905 168.326C232.384 173.298 236.297 178.418 240.413 183.804C241.82 185.646 243.275 187.55 244.821 189.482C257.79 205.701 262.657 216.607 259.702 222.823C253.735 235.375 234.868 243.812 227.034 246.856C216.375 250.999 205.719 253.415 198.957 253.415ZM195.126 249.605L195.161 249.618C195.149 249.614 195.138 249.609 195.126 249.605Z" fill="black"/>
<path d="M173.279 218.958C172.929 218.958 172.587 218.846 172.304 218.64C170.466 217.3 168.559 216.06 166.589 214.925C166.206 214.706 165.927 214.343 165.811 213.918C165.696 213.492 165.754 213.038 165.973 212.656C166.193 212.273 166.555 211.993 166.98 211.878C167.405 211.763 167.859 211.821 168.242 212.04C170.315 213.235 172.323 214.54 174.257 215.949C174.541 216.156 174.753 216.447 174.861 216.781C174.97 217.115 174.97 217.475 174.861 217.809C174.752 218.143 174.541 218.434 174.257 218.641C173.972 218.847 173.63 218.958 173.279 218.958Z" fill="black"/>
<path d="M159.874 181.09C158.837 181.118 157.802 180.969 156.815 180.649C156.324 180.471 151.987 178.789 150.811 174.568C149.952 171.485 151.048 168.025 154.069 164.286C154.078 164.275 154.087 164.263 154.096 164.252C154.27 164.048 158.446 159.209 166.14 155.538C177.654 150.044 186.569 152.511 186.943 152.619C188.515 153.054 189.877 154.044 190.776 155.405C191.676 156.766 192.053 158.407 191.837 160.025C191.539 162.051 190.536 164.153 188.859 166.276C181.744 175.275 167.512 181.09 159.874 181.09ZM156.637 166.397C154.343 169.243 153.46 171.692 154.012 173.676C154.754 176.338 157.915 177.511 157.947 177.523C159.756 178.179 164.721 177.563 170.705 175.117C177.208 172.459 182.875 168.484 186.253 164.213C187.564 162.554 188.337 160.982 188.55 159.54C188.649 158.719 188.449 157.89 187.985 157.205C187.522 156.52 186.826 156.027 186.027 155.815C185.949 155.793 177.884 153.618 167.572 158.539C160.699 161.819 156.872 166.126 156.637 166.397Z" fill="black"/>
<path d="M223.67 169.376C223.281 169.376 222.904 169.239 222.606 168.988C221.064 167.7 219.415 166.441 217.704 165.246C217.525 165.121 217.372 164.962 217.254 164.778C217.137 164.594 217.057 164.389 217.018 164.174C216.941 163.74 217.039 163.292 217.292 162.931C217.544 162.569 217.929 162.323 218.363 162.245C218.797 162.168 219.244 162.266 219.605 162.519C221.396 163.768 223.123 165.087 224.738 166.437C224.999 166.656 225.187 166.95 225.276 167.28C225.364 167.61 225.349 167.959 225.233 168.279C225.116 168.6 224.904 168.877 224.625 169.073C224.345 169.269 224.012 169.374 223.671 169.374L223.67 169.376Z" fill="black"/>
<path d="M146.09 231.974C145.782 231.975 145.481 231.889 145.218 231.728C144.956 231.566 144.744 231.335 144.606 231.06L141.005 223.929C140.863 223.647 140.804 223.331 140.835 223.017C140.866 222.702 140.986 222.403 141.181 222.155C141.375 221.906 141.637 221.718 141.934 221.613C142.232 221.508 142.553 221.489 142.861 221.56L150.062 223.223C150.276 223.27 150.478 223.36 150.657 223.487C150.836 223.613 150.989 223.774 151.106 223.959C151.222 224.145 151.301 224.352 151.338 224.568C151.374 224.784 151.368 225.005 151.319 225.219C151.269 225.433 151.178 225.635 151.051 225.813C150.923 225.991 150.761 226.143 150.575 226.258C150.389 226.374 150.181 226.451 149.965 226.486C149.749 226.521 149.527 226.513 149.314 226.462L145.57 225.598L147.571 229.56C147.699 229.814 147.76 230.096 147.748 230.379C147.736 230.663 147.652 230.939 147.504 231.181C147.355 231.423 147.147 231.622 146.899 231.761C146.652 231.9 146.373 231.973 146.089 231.973L146.09 231.974Z" fill="black"/>
<path d="M165.476 222.627C165.081 222.627 164.699 222.487 164.399 222.231C164.098 221.976 163.898 221.621 163.834 221.231C163.771 220.841 163.849 220.442 164.053 220.104C164.257 219.766 164.575 219.512 164.95 219.387L172.428 216.893C172.635 216.824 172.854 216.796 173.071 216.812C173.289 216.827 173.502 216.885 173.697 216.983C173.892 217.08 174.066 217.216 174.209 217.38C174.352 217.545 174.462 217.737 174.531 217.944C174.6 218.151 174.628 218.37 174.612 218.588C174.597 218.805 174.539 219.018 174.441 219.213C174.344 219.409 174.209 219.583 174.044 219.726C173.879 219.869 173.688 219.978 173.481 220.048L166.002 222.541C165.833 222.598 165.655 222.627 165.476 222.627Z" fill="black"/>
<path d="M174.221 191.283C173.139 191.299 172.064 191.096 171.062 190.687C170.213 190.346 169.453 189.817 168.839 189.139C168.225 188.461 167.772 187.652 167.516 186.774L170.748 185.991L170.741 185.961C170.88 186.348 171.103 186.7 171.394 186.992C171.684 187.285 172.035 187.509 172.421 187.651C173.735 188.175 176.928 188.467 183.55 184.548C192.884 179.023 200.434 169.532 201.503 161.979C201.948 158.837 201.267 156.279 199.477 154.376C192.318 146.764 183.378 152.933 183 153.2C182.966 153.224 182.926 153.25 182.89 153.272C182.205 153.697 181.578 154.206 181.022 154.789C180.876 154.951 180.699 155.083 180.502 155.178C180.305 155.272 180.092 155.326 179.874 155.338C179.656 155.349 179.438 155.318 179.232 155.245C179.026 155.173 178.837 155.06 178.675 154.914C178.512 154.768 178.38 154.592 178.286 154.395C178.192 154.198 178.138 153.984 178.126 153.766C178.114 153.548 178.146 153.33 178.218 153.124C178.291 152.918 178.403 152.729 178.549 152.566C179.313 151.749 180.181 151.037 181.132 150.45C183.2 149.09 185.503 148.128 187.923 147.613C191.648 146.841 197.097 146.993 201.898 152.098C204.378 154.735 205.38 158.313 204.794 162.446C203.576 171.051 195.536 181.316 185.243 187.409C180.885 189.988 177.195 191.283 174.221 191.283Z" fill="black"/>
<path d="M162.429 189.247C160.659 189.255 158.898 188.981 157.214 188.437C156.355 188.16 155.539 187.765 154.79 187.262C148.039 182.698 150.562 171.413 150.673 170.935C150.722 170.723 150.813 170.522 150.94 170.344C151.067 170.166 151.227 170.015 151.413 169.9C151.598 169.784 151.804 169.706 152.019 169.67C152.234 169.635 152.455 169.641 152.667 169.691C152.88 169.74 153.081 169.831 153.258 169.958C153.436 170.085 153.587 170.245 153.702 170.43C153.818 170.616 153.896 170.822 153.931 171.037C153.967 171.253 153.96 171.473 153.911 171.686C153.89 171.779 151.792 181.223 156.651 184.507C157.143 184.836 157.679 185.095 158.243 185.276C165.057 187.497 172.824 183.483 178.139 179.724C181.882 177.043 185.339 173.983 188.453 170.591C188.746 170.265 189.155 170.067 189.592 170.041C190.03 170.015 190.46 170.163 190.789 170.452C191.118 170.742 191.319 171.149 191.349 171.587C191.379 172.024 191.235 172.455 190.949 172.787C190.289 173.538 176.307 189.247 162.429 189.247Z" fill="black"/>
<path d="M214.222 243.686C213.898 243.686 213.582 243.591 213.311 243.414C213.041 243.236 212.828 242.983 212.699 242.686L209.929 236.313C209.813 236.047 209.769 235.755 209.801 235.466C209.812 235.371 210.826 225.831 208.257 219.664C208.107 219.304 208.089 218.902 208.205 218.529C208.321 218.157 208.565 217.837 208.893 217.626L232.158 202.663C232.447 202.477 232.786 202.386 233.13 202.401C233.473 202.416 233.803 202.537 234.075 202.748L247.646 213.277C247.92 213.489 248.12 213.782 248.219 214.113L249.881 219.655C249.996 220.038 249.969 220.449 249.806 220.813C249.564 221.352 243.559 234.114 214.742 243.602C214.574 243.658 214.399 243.686 214.222 243.686ZM213.148 235.383L215.138 239.962C238.033 232.12 245.102 222.259 246.497 219.944L245.188 215.579L232.966 206.096L211.815 219.699C213.838 225.769 213.323 233.437 213.148 235.383Z" fill="black"/>
<path d="M241.171 145.067C241.027 145.067 240.884 145.048 240.745 145.011L235.546 143.637C235.126 143.519 234.769 143.24 234.553 142.861C234.336 142.482 234.278 142.033 234.389 141.611C234.501 141.189 234.774 140.828 235.149 140.606C235.525 140.383 235.972 140.317 236.396 140.423L241.594 141.797C241.949 141.891 242.263 142.1 242.486 142.39C242.71 142.681 242.832 143.038 242.832 143.405C242.832 143.548 242.813 143.691 242.777 143.83C242.683 144.184 242.474 144.498 242.184 144.722C241.893 144.945 241.537 145.067 241.171 145.067Z" fill="black"/>
<path d="M239.468 148.395C239.208 148.395 238.952 148.335 238.721 148.218C238.489 148.102 238.287 147.933 238.133 147.724L234.637 143.021C234.374 142.667 234.263 142.223 234.327 141.787C234.391 141.35 234.626 140.958 234.98 140.694C235.333 140.431 235.777 140.32 236.213 140.384C236.649 140.448 237.042 140.683 237.305 141.037L240.8 145.74C240.984 145.987 241.095 146.281 241.122 146.588C241.149 146.895 241.09 147.203 240.952 147.478C240.814 147.754 240.602 147.985 240.34 148.147C240.077 148.309 239.776 148.394 239.468 148.395Z" fill="black"/>
<path d="M130.932 156.054C126.893 151.767 124.557 146.154 124.362 140.269C124.168 134.384 126.128 128.631 129.875 124.092C133.623 119.553 138.899 116.538 144.714 115.615C150.529 114.691 156.483 115.922 161.458 119.076C163.126 120.134 168.89 159.109 154.716 162.857C150.508 163.97 146.076 163.926 141.89 162.728C137.703 161.531 133.917 159.225 130.932 156.054Z" fill="#78B4B7"/>
<path d="M153.798 148.997C149.8 148.684 144.344 143.613 145.466 139.479C146.587 135.346 152.79 137.268 154.285 138.383C151.596 133.901 154.958 122.817 161.401 119.164C169.567 118.788 172.752 125.607 174.769 127.82C177.297 130.594 183.995 132.425 183.995 132.425C184.095 135.475 183.142 136.273 181.672 137.314C192.862 154.157 171.683 163.297 165.273 164.221" fill="white"/>
<path d="M182.708 156.446C177.879 162.046 175.424 162.359 171.232 162.964C171.007 162.997 170.779 162.985 170.559 162.929C170.339 162.873 170.132 162.774 169.95 162.638C169.769 162.502 169.615 162.332 169.5 162.137C169.384 161.942 169.307 161.726 169.275 161.502C169.242 161.277 169.254 161.049 169.31 160.829C169.366 160.609 169.464 160.402 169.6 160.221C169.736 160.039 169.906 159.886 170.101 159.77C170.296 159.654 170.511 159.578 170.736 159.546C175.073 158.92 179.179 157.718 182.221 150.912C183.932 147.082 183.264 142.828 180.234 138.268C179.985 137.894 179.892 137.438 179.974 136.997C180.056 136.556 180.307 136.164 180.673 135.904C181.623 135.232 182.108 134.888 182.239 133.699C180.013 132.979 175.641 131.339 173.493 128.982C173.025 128.442 172.585 127.879 172.173 127.295C170.157 124.548 167.414 120.811 161.903 120.877C159.144 122.622 156.704 126.32 155.621 130.439C154.853 133.362 154.908 136.066 155.766 137.496C155.972 137.839 156.052 138.243 155.993 138.638C155.934 139.034 155.74 139.397 155.443 139.665C155.146 139.933 154.766 140.09 154.366 140.108C153.967 140.127 153.573 140.006 153.252 139.767C152.522 139.221 149.76 138.286 148.132 138.847C147.882 138.92 147.657 139.059 147.481 139.251C147.305 139.442 147.185 139.678 147.133 139.933C146.771 141.265 147.597 142.712 148.121 143.455C149.552 145.485 152.05 147.127 153.932 147.274C154.506 147.319 155.443 150.695 153.422 150.695C150.579 150.371 147.27 148.244 145.297 145.445C143.788 143.304 143.256 141.025 143.798 139.026C143.994 138.226 144.392 137.49 144.953 136.887C145.514 136.285 146.219 135.835 147.003 135.582C148.449 135.084 150.156 135.168 151.681 135.509C151.538 133.506 151.741 131.493 152.281 129.56C153.357 125.464 156.095 120.187 160.549 117.663C160.785 117.529 161.049 117.453 161.321 117.44C168.964 117.087 172.863 122.399 174.957 125.253C175.382 125.832 175.75 126.333 176.046 126.657C177.836 128.622 182.72 130.284 184.45 130.76C184.806 130.858 185.121 131.067 185.35 131.356C185.579 131.646 185.709 132.001 185.721 132.37C185.814 135.198 185.076 136.63 183.949 137.703C186.942 142.828 187.423 147.741 185.374 152.322C184.69 153.819 183.792 155.208 182.708 156.446Z" fill="black"/>
<path d="M170.331 131.694C169.585 129.844 167.884 128.785 166.531 129.329C165.177 129.874 164.685 131.815 165.43 133.666C166.176 135.516 167.877 136.575 169.231 136.031C170.584 135.486 171.077 133.545 170.331 131.694Z" fill="black"/>
<path d="M170.121 135.562C169.895 135.827 169.608 136.033 169.285 136.164C167.86 136.737 166.071 135.64 165.297 133.719C164.93 132.851 164.845 131.89 165.054 130.972C165.119 130.579 165.284 130.208 165.533 129.897C165.782 129.586 166.107 129.344 166.477 129.196C166.847 129.047 167.249 128.996 167.645 129.048C168.04 129.1 168.416 129.252 168.735 129.492C169.512 130.021 170.114 130.769 170.465 131.641C170.816 132.512 170.901 133.469 170.708 134.388C170.606 134.819 170.405 135.221 170.121 135.562ZM165.564 133.612C166.278 135.385 167.9 136.411 169.178 135.897C169.497 135.753 169.778 135.534 169.996 135.259C170.213 134.984 170.362 134.661 170.429 134.317C170.607 133.457 170.526 132.563 170.198 131.748C169.87 130.933 169.308 130.233 168.583 129.736C168.303 129.521 167.971 129.382 167.62 129.335C167.27 129.287 166.913 129.331 166.585 129.463C166.257 129.595 165.969 129.81 165.75 130.087C165.53 130.364 165.387 130.693 165.333 131.043C165.139 131.902 165.22 132.801 165.564 133.612Z" fill="black"/>
<path d="M164.803 109.994C164.606 110.222 164.352 110.395 164.068 110.494C163.784 110.594 163.478 110.618 163.182 110.563C162.885 110.508 162.608 110.376 162.378 110.181C162.148 109.986 161.974 109.734 161.871 109.451C160.827 106.561 158.361 104.057 155.999 102.099C155.495 111.106 145.897 120.882 141.997 122.848C141.588 123.054 141.114 123.09 140.679 122.946C140.244 122.803 139.883 122.492 139.677 122.083C139.471 121.674 139.435 121.2 139.578 120.765C139.721 120.33 140.032 119.97 140.44 119.764C141.995 118.98 145.707 115.756 148.738 111.323C150.664 108.506 153.668 103.132 152.149 98.7939C152.028 98.4461 152.02 98.0686 152.128 97.7166C152.236 97.3645 152.454 97.0563 152.75 96.837C153.046 96.6176 153.404 96.4987 153.773 96.4975C154.141 96.4963 154.5 96.6129 154.798 96.8303C157.734 98.9761 163.198 102.972 165.119 108.279C165.223 108.567 165.249 108.878 165.194 109.179C165.138 109.481 165.003 109.762 164.803 109.994Z" fill="black"/>
<g clip-path="url(#clip0_997:38874)">
<path d="M124.467 136.221C118.608 130.816 100.588 139.839 100.511 151.894C100.405 168.24 121.481 168.804 122.43 185.933C130.414 179.379 133.809 173.695 131.264 166.774C128.765 159.976 113.866 150.422 124.274 143.327C123.849 141.357 124 138.897 124.467 136.221Z" fill="#78B4B7"/>
<path d="M129.241 181.851C127.492 183.817 125.579 185.631 123.523 187.273C123.276 187.476 122.977 187.606 122.66 187.65C122.344 187.694 122.021 187.65 121.729 187.521C121.436 187.393 121.185 187.186 121.003 186.924C120.821 186.662 120.716 186.354 120.698 186.034C120.266 178.247 115.28 174.234 110.001 169.986C104.454 165.522 98.7177 160.906 98.7757 151.889C98.828 143.975 105.558 137.507 112.205 134.608C117.76 132.187 122.783 132.313 125.639 134.948C125.851 135.144 126.011 135.391 126.104 135.665C126.197 135.938 126.219 136.231 126.17 136.517C125.697 139.232 125.628 141.4 125.964 142.958C126.037 143.296 126.008 143.647 125.88 143.968C125.752 144.289 125.53 144.564 125.245 144.758C123.523 145.932 122.591 147.163 122.394 148.522C121.955 151.554 125.144 155.443 127.957 158.874C130.051 161.427 132.028 163.838 132.887 166.174C135.183 172.42 132.966 177.53 129.241 181.851ZM123.712 182.535C129.779 176.962 131.498 172.443 129.636 167.377C128.978 165.59 127.181 163.397 125.277 161.076C122.011 157.091 118.309 152.576 118.967 148.033C119.264 145.985 120.415 144.15 122.393 142.566C122.218 140.71 122.283 138.839 122.588 136.998C120.629 135.92 117.231 136.195 113.584 137.784C108.148 140.156 102.281 145.584 102.241 151.904C102.192 159.249 106.819 162.972 112.176 167.284C116.877 171.067 122.127 175.293 123.713 182.534L123.712 182.535Z" fill="#78B4B7"/>
<path d="M124.645 134.761C124.297 137.666 123.704 141.602 124.438 143.992L124.645 134.761Z" fill="white"/>
<path d="M125.747 145.123C125.544 145.357 125.283 145.533 124.99 145.632C124.697 145.732 124.383 145.751 124.08 145.687C123.778 145.624 123.498 145.481 123.27 145.273C123.041 145.065 122.873 144.799 122.782 144.504C122.009 141.985 122.461 138.332 122.824 135.396C122.859 135.109 122.893 134.83 122.926 134.559C122.952 134.332 123.022 134.112 123.133 133.912C123.244 133.712 123.393 133.536 123.572 133.394C123.751 133.252 123.957 133.146 124.176 133.084C124.396 133.021 124.626 133.003 124.853 133.03C125.08 133.056 125.299 133.128 125.498 133.239C125.696 133.351 125.871 133.501 126.012 133.681C126.152 133.861 126.256 134.067 126.316 134.287C126.377 134.507 126.393 134.737 126.364 134.964C126.331 135.238 126.296 135.522 126.26 135.813C125.955 138.284 125.536 141.668 126.093 143.48C126.179 143.76 126.192 144.058 126.132 144.346C126.071 144.633 125.939 144.9 125.747 145.123Z" fill="black"/>
<path d="M115.453 164.432C115.277 164.636 115.055 164.797 114.806 164.9C114.557 165.004 114.288 165.049 114.019 165.03C113.75 165.011 113.489 164.93 113.258 164.793C113.026 164.656 112.829 164.467 112.684 164.24C112.163 163.426 111.538 162.571 110.878 161.666C108.292 158.124 105.362 154.109 106.02 149.28C106.871 143.039 113.825 137.968 117.92 137.726C118.148 137.711 118.376 137.742 118.592 137.816C118.808 137.889 119.007 138.005 119.178 138.156C119.349 138.308 119.488 138.491 119.587 138.696C119.687 138.902 119.745 139.125 119.758 139.353C119.771 139.581 119.738 139.809 119.663 140.025C119.587 140.241 119.469 140.439 119.317 140.609C119.164 140.78 118.98 140.918 118.773 141.017C118.567 141.115 118.344 141.172 118.116 141.184C115.561 141.335 110.056 145.302 109.451 149.74C108.98 153.188 111.368 156.457 113.676 159.619C114.368 160.568 115.022 161.464 115.6 162.365C115.802 162.679 115.896 163.05 115.87 163.422C115.843 163.795 115.697 164.149 115.453 164.432Z" fill="black"/>
<path d="M127.318 178.927C127.046 179.243 126.669 179.45 126.257 179.511C125.845 179.572 125.425 179.483 125.074 179.259C124.723 179.036 124.465 178.693 124.347 178.294C124.229 177.895 124.258 177.466 124.43 177.086C126.521 172.454 126.086 170.758 124.411 167.422C123.595 165.798 122.426 164.406 121.188 162.932C118.803 160.091 116.098 156.871 116.351 151.764C116.356 151.533 116.407 151.305 116.502 151.094C116.597 150.882 116.733 150.692 116.903 150.534C117.072 150.376 117.271 150.254 117.489 150.174C117.706 150.094 117.937 150.059 118.168 150.07C118.399 150.081 118.625 150.138 118.834 150.238C119.042 150.338 119.228 150.479 119.381 150.652C119.534 150.826 119.65 151.028 119.724 151.247C119.797 151.466 119.826 151.698 119.808 151.929C119.623 155.68 121.577 158.007 123.84 160.701C125.151 162.263 126.507 163.878 127.504 165.863C129.612 170.061 130.124 172.883 127.585 178.507C127.516 178.659 127.426 178.801 127.318 178.927Z" fill="black"/>
</g>
<path d="M154.426 149.367C155.011 150.036 158.105 152.627 159.359 156.892C160.613 161.156 160.028 169.182 159.192 170.102" stroke="black" stroke-width="3.5" stroke-linecap="round"/>
<g clip-path="url(#clip1_997:38874)">
<path d="M601.662 153.273C602.682 161.553 603.097 179.194 602.103 194.333C600.381 220.557 598.312 239.867 597.996 241.486C592.647 241.607 584.337 241.62 583.671 241.012C582.935 240.342 574.887 213.403 575.589 198.952C576.315 184.002 563.275 166.385 572.098 134.097C583.335 127.551 594.46 126.528 604.288 127.465" fill="#65B8A2"/>
<path d="M591.952 242.823C583.785 242.823 583.177 242.268 582.821 241.944C582.561 241.707 582.237 241.412 580.79 236.549C580.216 234.622 579.073 230.615 577.863 225.438C576.041 217.645 573.949 206.714 574.329 198.892C574.567 194.004 573.258 188.742 571.741 182.65C568.723 170.515 564.965 155.415 570.881 133.765C570.969 133.446 571.177 133.175 571.463 133.009C581.329 127.261 592.104 125.038 604.407 126.211C604.74 126.243 605.046 126.406 605.259 126.663C605.472 126.921 605.574 127.253 605.542 127.586C605.51 127.918 605.347 128.225 605.09 128.438C604.832 128.65 604.5 128.752 604.168 128.72C592.594 127.617 582.451 129.648 573.178 134.93C567.628 155.68 571.263 170.285 574.187 182.04C575.751 188.326 577.102 193.755 576.847 199.013C576.203 212.284 583.129 236.536 584.56 239.993C585.84 240.224 590.28 240.374 596.9 240.249C597.467 235.758 599.302 217.767 600.846 194.252C601.845 179.028 601.41 161.54 600.411 153.428C600.39 153.263 600.402 153.096 600.446 152.936C600.49 152.776 600.565 152.626 600.666 152.495C600.768 152.364 600.895 152.255 601.039 152.173C601.184 152.091 601.343 152.038 601.508 152.018C601.672 151.998 601.839 152.01 601.999 152.055C602.159 152.099 602.309 152.175 602.439 152.277C602.57 152.379 602.679 152.507 602.76 152.651C602.842 152.796 602.893 152.955 602.913 153.12C603.926 161.348 604.37 179.045 603.361 194.417C601.605 221.168 599.538 240.17 599.232 241.729C599.177 242.011 599.027 242.266 598.807 242.451C598.588 242.636 598.311 242.74 598.024 242.747C595.637 242.8 593.634 242.823 591.952 242.823Z" fill="#65B8A2"/>
<path d="M604.288 127.465C615.916 128.575 623.264 130.013 626.633 144.37C631.905 175.413 622.55 200.184 619.101 208.81C615.405 218.051 578.223 235.321 574.984 239.421C573.019 237.52 568.584 230.279 566.555 226.56C574.496 218.775 582.078 206.207 595.424 199.975C595.332 190.079 597.091 176.616 597.98 165.864" fill="#65B8A2"/>
<path d="M574.983 240.681C574.655 240.681 574.341 240.554 574.106 240.326C571.924 238.214 567.316 230.588 565.447 227.163C565.316 226.923 565.267 226.645 565.307 226.374C565.347 226.103 565.475 225.852 565.671 225.66C567.895 223.48 570.102 220.905 572.439 218.178C578.224 211.427 584.763 203.797 594.159 199.183C594.161 192.201 594.999 183.718 595.81 175.503C596.149 172.071 596.469 168.831 596.723 165.76C596.736 165.594 596.781 165.433 596.856 165.284C596.932 165.136 597.035 165.004 597.162 164.897C597.288 164.789 597.435 164.707 597.593 164.656C597.751 164.605 597.918 164.586 598.084 164.599C598.249 164.613 598.41 164.659 598.558 164.736C598.706 164.812 598.837 164.917 598.944 165.044C599.051 165.171 599.132 165.318 599.182 165.476C599.232 165.635 599.25 165.802 599.235 165.967C598.979 169.059 598.658 172.309 598.318 175.75C597.482 184.217 596.617 192.971 596.683 199.963C596.685 200.205 596.618 200.442 596.489 200.647C596.36 200.851 596.175 201.014 595.956 201.117C586.659 205.458 580.121 213.087 574.353 219.818C572.214 222.314 570.182 224.685 568.116 226.78C570.077 230.273 573.198 235.287 575.065 237.617C577.112 235.971 581.37 233.507 587.881 229.782C598.969 223.439 615.726 213.852 617.93 208.342C626.442 187.056 628.954 165.617 625.396 144.619C622.208 131.085 615.588 129.809 604.167 128.72C603.834 128.688 603.528 128.526 603.315 128.268C603.102 128.01 603 127.679 603.032 127.346C603.064 127.013 603.226 126.707 603.484 126.494C603.742 126.281 604.073 126.179 604.406 126.211C616.664 127.38 624.359 129.166 627.859 144.082C627.865 144.108 627.87 144.133 627.874 144.159C631.521 165.632 628.963 187.542 620.271 209.278C617.741 215.604 601.879 224.678 589.134 231.97C582.886 235.544 576.986 238.92 575.972 240.202C575.863 240.341 575.726 240.454 575.57 240.536C575.414 240.618 575.243 240.667 575.067 240.678C575.039 240.68 575.011 240.681 574.983 240.681Z" fill="#65B8A2"/>
<path d="M574.983 239.421C570.48 234.865 566.554 226.56 566.554 226.56C560.033 230.394 555.001 237.895 550.895 243.697C550.895 243.697 551.938 255.124 553.788 261.468C554.907 265.303 564.351 269.733 564.351 269.733C564.351 269.733 567.823 268.71 569.237 266.611C570.155 265.246 571.925 262.858 570.12 255.313C569.725 250.619 574.983 239.421 574.983 239.421Z" fill="white"/>
<path d="M564.352 270.993C564.167 270.993 563.984 270.952 563.817 270.874C562.797 270.396 553.821 266.079 552.579 261.821C550.716 255.433 549.684 244.282 549.641 243.812C549.614 243.513 549.694 243.214 549.867 242.969C550.124 242.606 550.384 242.238 550.648 241.863C554.623 236.224 559.569 229.206 565.916 225.474C566.066 225.385 566.234 225.328 566.408 225.308C566.582 225.288 566.758 225.304 566.926 225.355C567.093 225.407 567.248 225.492 567.38 225.607C567.512 225.722 567.619 225.863 567.694 226.021C567.733 226.102 571.584 234.188 575.88 238.535C576.062 238.718 576.182 238.953 576.226 239.207C576.27 239.462 576.234 239.723 576.125 239.957C574.714 242.962 571.135 251.494 571.371 255.118C573.226 262.962 571.353 265.733 570.344 267.225L570.283 267.315C569.573 268.369 568.41 269.302 566.825 270.088C566.143 270.428 565.435 270.713 564.708 270.941C564.593 270.976 564.473 270.993 564.352 270.993ZM552.195 244.042C552.412 246.227 553.411 255.672 554.999 261.115C555.668 263.409 560.958 266.681 564.436 268.376C565.489 267.993 567.38 267.112 568.192 265.907L568.255 265.814C569.107 264.553 570.532 262.446 568.895 255.605C568.881 255.544 568.871 255.481 568.865 255.418C568.502 251.108 572.218 242.463 573.482 239.669C570.157 236.041 567.277 230.774 566.046 228.37C560.69 231.988 556.29 238.232 552.708 243.314C552.536 243.56 552.365 243.802 552.195 244.042Z" fill="black"/>
<path d="M569.784 253.696C566.44 251.41 563.651 252.218 563.651 252.218L569.784 253.696Z" fill="white"/>
<path d="M569.782 254.956C569.529 254.956 569.281 254.88 569.073 254.736C566.309 252.848 564.08 253.408 563.987 253.433C563.666 253.522 563.323 253.481 563.032 253.317C562.742 253.154 562.527 252.883 562.437 252.563C562.346 252.242 562.385 251.899 562.547 251.607C562.708 251.316 562.979 251.101 563.299 251.008C563.436 250.968 566.703 250.063 570.495 252.655C570.717 252.807 570.885 253.027 570.974 253.281C571.062 253.535 571.067 253.811 570.988 254.069C570.908 254.326 570.748 254.551 570.531 254.711C570.314 254.871 570.052 254.957 569.782 254.956Z" fill="black"/>
<path d="M571.157 248.866C568.878 247.252 564.83 246.394 564.83 246.394L571.157 248.866Z" fill="white"/>
<path d="M571.156 250.126C570.896 250.126 570.642 250.045 570.429 249.895C568.393 248.453 564.606 247.636 564.569 247.628C564.245 247.555 563.963 247.358 563.784 247.079C563.605 246.799 563.543 246.461 563.612 246.136C563.681 245.812 563.875 245.528 564.152 245.345C564.429 245.163 564.767 245.097 565.092 245.162C565.268 245.199 569.422 246.094 571.886 247.837C572.105 247.992 572.269 248.212 572.354 248.466C572.439 248.72 572.441 248.994 572.36 249.249C572.278 249.504 572.118 249.727 571.902 249.885C571.685 250.042 571.425 250.127 571.157 250.127L571.156 250.126Z" fill="black"/>
<path d="M572.634 244.999C570.071 243.185 566.634 242.036 566.634 242.036L572.634 244.999Z" fill="white"/>
<path d="M572.632 246.259C572.372 246.259 572.118 246.179 571.905 246.028C569.532 244.348 566.267 243.243 566.234 243.232C566.077 243.179 565.932 243.096 565.807 242.988C565.682 242.879 565.58 242.747 565.506 242.599C565.432 242.451 565.388 242.29 565.377 242.125C565.365 241.959 565.386 241.794 565.439 241.637C565.491 241.48 565.574 241.335 565.683 241.21C565.791 241.085 565.923 240.983 566.072 240.909C566.371 240.76 566.717 240.735 567.034 240.842C567.181 240.891 570.678 242.071 573.361 243.971C573.58 244.126 573.744 244.346 573.829 244.6C573.914 244.853 573.916 245.128 573.835 245.383C573.754 245.638 573.593 245.861 573.377 246.018C573.161 246.176 572.9 246.261 572.632 246.261V246.259Z" fill="black"/>
<path d="M569.237 266.61C569.237 266.61 557.364 262.551 557.135 255.632C557.068 253.59 554.599 239.011 554.599 239.011" fill="white"/>
<path d="M569.237 267.872C569.099 267.872 568.961 267.849 568.83 267.804C568.311 267.626 556.13 263.374 555.876 255.675C555.823 254.069 554.04 243.254 553.357 239.222C553.329 239.059 553.333 238.891 553.369 238.729C553.406 238.567 553.474 238.414 553.57 238.279C553.665 238.143 553.787 238.028 553.928 237.939C554.068 237.851 554.225 237.791 554.389 237.763C554.552 237.736 554.72 237.741 554.882 237.778C555.043 237.815 555.196 237.884 555.331 237.981C555.466 238.077 555.581 238.2 555.669 238.341C555.757 238.482 555.815 238.639 555.842 238.802C556.096 240.303 558.327 253.525 558.395 255.593C558.559 260.543 566.572 264.365 569.646 265.42C569.928 265.516 570.167 265.71 570.321 265.966C570.474 266.222 570.531 266.525 570.482 266.819C570.433 267.114 570.281 267.381 570.053 267.574C569.825 267.767 569.536 267.873 569.237 267.873V267.872Z" fill="black"/>
<path d="M570.706 262.245C570.469 262.245 570.236 262.178 570.035 262.052C569.833 261.925 569.672 261.745 569.569 261.531C568.204 258.687 564.19 257.17 557.295 256.894C557.13 256.887 556.967 256.848 556.817 256.779C556.667 256.709 556.531 256.611 556.419 256.489C556.307 256.368 556.22 256.225 556.163 256.07C556.105 255.915 556.079 255.749 556.086 255.584C556.093 255.419 556.132 255.256 556.201 255.106C556.271 254.956 556.369 254.821 556.49 254.708C556.736 254.482 557.062 254.362 557.396 254.375C565.31 254.693 570.036 256.676 571.842 260.44C571.934 260.632 571.976 260.845 571.964 261.057C571.952 261.27 571.886 261.476 571.773 261.657C571.659 261.837 571.502 261.986 571.316 262.089C571.129 262.192 570.919 262.246 570.706 262.247V262.245Z" fill="black"/>
<path d="M556.013 248.717C555.771 248.717 555.535 248.647 555.332 248.517C555.128 248.386 554.967 248.2 554.867 247.98C554.766 247.761 554.731 247.517 554.766 247.278C554.8 247.039 554.902 246.815 555.06 246.632C560.488 240.357 556.887 235.642 556.85 235.595C556.747 235.466 556.671 235.317 556.626 235.157C556.581 234.998 556.568 234.832 556.587 234.667C556.606 234.503 556.658 234.344 556.739 234.199C556.82 234.055 556.928 233.928 557.058 233.825C557.188 233.723 557.337 233.647 557.496 233.602C557.655 233.557 557.822 233.543 557.986 233.563C558.15 233.582 558.309 233.634 558.454 233.714C558.598 233.795 558.725 233.904 558.828 234.034C559.722 235.294 560.292 236.754 560.489 238.287C560.812 240.614 560.464 244.238 556.966 248.281C556.848 248.418 556.702 248.528 556.537 248.603C556.372 248.678 556.194 248.717 556.013 248.717Z" fill="black"/>
<path d="M576.262 217.54C576.025 217.539 575.793 217.472 575.592 217.346C575.391 217.22 575.23 217.039 575.127 216.825C575.025 216.612 574.984 216.373 575.011 216.138C575.038 215.902 575.13 215.678 575.278 215.493C580.971 208.364 585.513 203.832 594.182 199.204C594.453 189.512 595.264 178.847 596.727 165.724C596.743 165.558 596.792 165.396 596.871 165.249C596.95 165.102 597.057 164.972 597.187 164.867C597.317 164.762 597.466 164.683 597.626 164.636C597.786 164.589 597.955 164.574 598.121 164.593C598.287 164.611 598.447 164.663 598.593 164.744C598.739 164.825 598.868 164.934 598.971 165.065C599.074 165.197 599.151 165.347 599.195 165.508C599.24 165.669 599.252 165.837 599.231 166.003C597.74 179.387 596.93 190.192 596.683 200.006C596.677 200.231 596.611 200.451 596.492 200.641C596.373 200.832 596.205 200.988 596.006 201.092C587.304 205.634 582.861 210.035 577.248 217.065C577.13 217.214 576.98 217.333 576.809 217.415C576.639 217.497 576.452 217.54 576.262 217.54Z" fill="black"/>
<path d="M580.906 236.601C580.631 236.602 580.364 236.512 580.145 236.347C579.926 236.181 579.767 235.949 579.692 235.685C579.617 235.421 579.63 235.139 579.73 234.883C579.83 234.628 580.01 234.411 580.244 234.267C582.641 232.793 585.396 231.271 588.313 229.66C591.616 227.835 595.361 225.766 599.114 223.463C599.255 223.376 599.412 223.317 599.576 223.29C599.74 223.263 599.907 223.269 600.069 223.308C600.23 223.346 600.383 223.416 600.517 223.513C600.652 223.61 600.766 223.734 600.853 223.875C600.94 224.017 600.998 224.174 601.023 224.338C601.049 224.502 601.042 224.67 601.003 224.831C600.964 224.993 600.893 225.145 600.795 225.279C600.697 225.413 600.574 225.526 600.431 225.612C596.63 227.943 592.859 230.027 589.532 231.865C586.642 233.462 583.912 234.97 581.565 236.413C581.367 236.536 581.139 236.601 580.906 236.601Z" fill="black"/>
<path d="M583.67 241.012C583.67 241.012 583.555 248.495 582.923 252.817C582.29 257.139 581.089 260.762 581.231 263.575C581.373 266.387 581.823 269.694 581.823 269.694L597.938 269.739C597.938 269.739 597.875 265.19 597.774 263.46C597.673 261.73 597.996 241.485 597.996 241.485L583.67 241.012Z" fill="white"/>
<path d="M597.937 271H597.934L581.819 270.955C581.515 270.954 581.221 270.844 580.992 270.643C580.763 270.443 580.615 270.166 580.574 269.865C580.555 269.727 580.115 266.472 579.972 263.639C579.876 261.728 580.318 259.612 580.83 257.162C581.131 255.722 581.442 254.234 581.676 252.635C582.289 248.444 582.409 241.067 582.411 240.993C582.413 240.826 582.449 240.661 582.516 240.507C582.583 240.354 582.68 240.216 582.802 240.1C583.047 239.868 583.375 239.743 583.713 239.753L598.038 240.226C598.368 240.237 598.681 240.378 598.909 240.617C599.136 240.856 599.261 241.176 599.256 241.506C599.166 247.124 598.951 262.006 599.032 263.387C599.134 265.125 599.195 269.536 599.198 269.723C599.2 269.89 599.169 270.055 599.107 270.21C599.045 270.365 598.952 270.506 598.835 270.625C598.718 270.744 598.578 270.838 598.424 270.903C598.27 270.967 598.105 271 597.938 271H597.937ZM582.935 268.438L596.657 268.476C596.63 267.004 596.581 264.65 596.515 263.534C596.426 262.012 596.647 247.172 596.716 242.705L584.902 242.314C584.839 244.661 584.654 249.685 584.17 253C583.924 254.674 583.591 256.27 583.297 257.677C582.821 259.957 582.41 261.926 582.49 263.512C582.578 265.269 582.792 267.246 582.935 268.438Z" fill="black"/>
<path d="M588.523 257.667C581.944 257.992 581.288 264.526 581.288 264.526L597.823 264.615C597.725 260.435 594.258 257.383 588.523 257.667Z" fill="white"/>
<path d="M597.823 265.875H597.816L581.281 265.786C581.106 265.785 580.932 265.747 580.772 265.676C580.612 265.604 580.469 265.499 580.351 265.369C580.234 265.238 580.145 265.085 580.09 264.918C580.036 264.751 580.017 264.574 580.034 264.4C580.299 261.766 582.4 256.707 588.461 256.408C591.827 256.243 594.641 257.11 596.59 258.922C597.37 259.646 597.994 260.522 598.423 261.496C598.852 262.47 599.077 263.521 599.084 264.585C599.088 264.753 599.058 264.92 598.997 265.077C598.935 265.233 598.843 265.375 598.725 265.495C598.608 265.616 598.468 265.711 598.313 265.776C598.158 265.841 597.992 265.875 597.824 265.875L597.823 265.875ZM582.872 263.274L596.392 263.347C596.15 262.357 595.621 261.46 594.873 260.768C593.454 259.449 591.221 258.794 588.586 258.925C584.888 259.108 583.43 261.635 582.872 263.274V263.274Z" fill="black"/>
<path d="M593.434 254.162C591.436 253.403 589.266 253.216 587.167 253.623L593.434 254.162Z" fill="white"/>
<path d="M593.433 255.423C593.281 255.422 593.129 255.394 592.986 255.34C591.207 254.664 589.275 254.498 587.407 254.86C587.079 254.923 586.739 254.854 586.462 254.667C586.185 254.48 585.993 254.191 585.93 253.862C585.866 253.534 585.936 253.194 586.123 252.917C586.31 252.64 586.599 252.449 586.927 252.385C589.256 251.934 591.664 252.141 593.881 252.984C594.157 253.088 594.388 253.286 594.533 253.543C594.678 253.8 594.728 254.1 594.675 254.39C594.622 254.68 594.468 254.942 594.241 255.131C594.014 255.32 593.729 255.423 593.433 255.423Z" fill="black"/>
<path d="M593.482 250.977C593.463 250.977 593.443 250.977 593.424 250.975L587.753 250.716C587.419 250.701 587.105 250.554 586.879 250.307C586.654 250.06 586.536 249.734 586.551 249.4C586.566 249.066 586.714 248.752 586.96 248.526C587.207 248.301 587.534 248.183 587.868 248.198L593.539 248.457C593.869 248.47 594.18 248.613 594.406 248.854C594.632 249.094 594.755 249.414 594.748 249.744C594.74 250.075 594.603 250.389 594.367 250.619C594.13 250.85 593.813 250.978 593.482 250.977Z" fill="black"/>
<path d="M593.84 246.977C593.818 246.977 593.796 246.977 593.773 246.975L587.885 246.666C587.551 246.649 587.238 246.499 587.014 246.251C586.791 246.003 586.675 245.675 586.692 245.342C586.71 245.008 586.859 244.695 587.107 244.471C587.356 244.247 587.683 244.131 588.017 244.149L593.905 244.457C594.234 244.473 594.544 244.617 594.768 244.859C594.992 245.1 595.113 245.42 595.104 245.749C595.096 246.078 594.959 246.391 594.723 246.62C594.486 246.85 594.17 246.978 593.84 246.977Z" fill="black"/>
<path d="M647.721 66.1507C638.731 54.8795 624.86 59.2142 623.004 51.0275C623.004 51.0275 613.706 46.6031 604.299 47.935C602.948 48.2081 600.251 49.5126 600.025 50.8683C598.393 50.6759 595.529 53.4308 594.816 56.1999C594.816 56.1999 590.987 58.3161 589.971 58.403C587.575 58.7202 583.866 59.9737 580.438 62.5056C570.895 69.5537 553.126 89.2061 550.689 100.984C547.659 115.633 561.498 132.349 566.416 136.327L573.421 126.479C570.41 119.635 567.24 111.921 566.416 105.991C569.617 102.336 577.29 96.1641 581.32 89.6533C581.314 89.6932 581.308 89.7352 581.302 89.7724C578.693 106.398 573.091 117.608 574.816 125.254C574.511 126.294 574.146 129.606 573.421 131.19C586.453 138.347 624.91 145.709 626.633 144.37C626.633 144.37 626.867 140.957 627.15 138.823C633.662 129.074 634.825 120.261 636.224 105.867C640.31 109.114 652.174 115.388 656.185 110.251C667.647 95.5728 653.366 73.2293 647.721 66.1507Z" fill="white"/>
<path d="M566.416 137.588C566.128 137.588 565.848 137.489 565.624 137.307C560.412 133.092 546.315 115.903 549.455 100.729C550.974 93.3874 557.919 84.0723 561.923 79.1738C567.636 72.1833 574.61 65.2426 579.688 61.4912C583.335 58.7973 587.305 57.4837 589.805 57.1527C590.136 57.1088 590.471 57.1984 590.737 57.4018C591.002 57.6051 591.176 57.9056 591.22 58.237C591.264 58.5685 591.174 58.9038 590.971 59.1692C590.767 59.4346 590.467 59.6084 590.135 59.6522C587.947 59.9419 584.447 61.1099 581.186 63.5194C576.262 67.1565 569.467 73.9275 563.875 80.7695C557.213 88.9193 552.969 96.1896 551.923 101.24C550.364 108.777 553.642 116.709 556.667 122.035C559.863 127.662 563.77 132.185 566.198 134.46L571.979 126.331C568.892 119.277 565.978 112.002 565.168 106.164C565.143 105.985 565.156 105.803 565.208 105.63C565.26 105.457 565.348 105.297 565.467 105.161C566.683 103.773 568.324 102.125 570.059 100.381C573.517 96.9044 577.437 92.9643 580.291 88.926C580.485 88.6551 580.778 88.4718 581.106 88.4163C581.434 88.3608 581.771 88.4375 582.043 88.6297C582.315 88.8219 582.5 89.114 582.558 89.442C582.615 89.7701 582.54 90.1075 582.349 90.3806C579.373 94.5918 575.374 98.6116 571.846 102.158C570.321 103.692 568.871 105.148 567.75 106.388C568.666 112.05 571.701 119.442 574.574 125.972C574.662 126.171 574.697 126.39 574.674 126.607C574.652 126.824 574.574 127.032 574.448 127.21L567.443 137.058C567.327 137.222 567.173 137.355 566.994 137.448C566.815 137.54 566.617 137.588 566.416 137.588Z" fill="black"/>
<path d="M625.519 145.786C624.38 145.786 622.489 145.621 619.235 145.128C614.94 144.477 609.526 143.436 603.992 142.196C597.314 140.699 580.906 136.739 572.815 132.295C572.536 132.141 572.325 131.888 572.225 131.586C572.125 131.284 572.143 130.955 572.275 130.666C572.687 129.767 573.001 128.013 573.23 126.732C573.339 126.127 573.43 125.618 573.522 125.226C572.568 120.469 574.12 114.64 576.075 107.301C577.445 102.16 578.997 96.3315 580.057 89.5771C580.777 84.9855 582.841 78.7924 585.315 73.7985C585.464 73.499 585.725 73.2707 586.042 73.1639C586.198 73.111 586.364 73.0895 586.529 73.1006C586.694 73.1118 586.856 73.1553 587.004 73.2288C587.152 73.3023 587.285 73.4042 587.394 73.5289C587.502 73.6535 587.586 73.7984 587.639 73.9552C587.692 74.1121 587.713 74.2778 587.702 74.4429C587.691 74.608 587.647 74.7694 587.574 74.9177C585.204 79.7008 583.231 85.6089 582.547 89.9678C581.466 96.8529 579.896 102.748 578.511 107.95C576.603 115.113 575.096 120.769 576.046 124.976C576.093 125.185 576.086 125.403 576.026 125.608C575.941 125.898 575.829 126.519 575.711 127.176C575.525 128.324 575.28 129.461 574.975 130.584C580.594 133.409 590.923 136.639 603.634 139.532C614.412 141.983 622.867 143.251 625.45 143.278C625.541 142.093 625.709 140.105 625.901 138.657C625.927 138.466 625.996 138.283 626.103 138.123C628.334 134.782 629.708 132.327 631.023 128.183C631.124 127.864 631.348 127.599 631.644 127.445C631.941 127.291 632.287 127.261 632.606 127.363C632.924 127.464 633.19 127.687 633.343 127.984C633.497 128.281 633.527 128.626 633.426 128.945C632.052 133.274 630.63 135.862 628.364 139.277C628.105 141.354 627.893 144.423 627.891 144.456C627.879 144.633 627.829 144.805 627.746 144.962C627.663 145.119 627.547 145.256 627.408 145.365C627.16 145.556 626.864 145.786 625.519 145.786Z" fill="black"/>
<path d="M601.898 39.5824C602.587 40.7209 604.642 42.5794 605.697 43.3901C605.469 46.5526 605.148 47.1079 604.929 48.1443C611.49 52.5025 617.938 52.446 623.003 51.0267C622.482 49.5232 622.767 47.8059 623.045 43.3914C626.113 40.5467 626.811 36.1081 626.811 36.1081C626.811 36.1081 630.183 35.1778 631.169 31.6259C631.82 29.277 630.178 27.2746 628.003 27.195C625.924 27.1188 623.852 29.8836 623.852 29.8836C624.414 16.6507 607.679 15.2812 607.679 15.2812C603 16.1573 596.176 30.2377 601.898 39.5824Z" fill="white"/>
<path d="M604.531 11.5603C605.27 13.0331 606.349 14.3084 607.679 15.2804C607.679 15.2804 624.415 16.6496 623.851 29.8814C623.851 29.8814 625.922 27.1179 628.002 27.1929C630.176 27.2725 631.819 29.2746 631.168 31.6248C630.182 35.1779 626.81 36.1068 626.81 36.1068C626.81 36.1068 626.112 40.545 623.044 43.3901C626.08 42.8887 631.922 40.9378 635.878 33.4339C640.233 25.1747 635.465 16.4593 629.758 12.1652C623.306 7.31146 616.295 8.83051 612.996 9.57428L612.636 9.39028C606.095 5.94953 607.064 1.26027 607.064 1.26027C601.637 6.62272 604.531 11.5603 604.531 11.5603Z" fill="#7396BA"/>
<path d="M623.044 44.6506C622.791 44.6505 622.544 44.5741 622.334 44.4314C622.125 44.2886 621.964 44.0862 621.871 43.8504C621.779 43.6145 621.759 43.3563 621.816 43.1094C621.872 42.8625 622.002 42.6383 622.188 42.4661C624.884 39.9651 625.559 35.9488 625.566 35.9083C625.604 35.6695 625.71 35.4469 625.872 35.2667C626.033 35.0865 626.243 34.9564 626.476 34.8919C626.578 34.8618 629.18 34.0784 629.953 31.2877C630.056 30.9598 630.082 30.6125 630.029 30.2729C629.976 29.9332 629.846 29.6104 629.648 29.3295C629.451 29.0644 629.196 28.8478 628.903 28.696C628.61 28.5441 628.286 28.4611 627.956 28.4531C626.886 28.4069 625.41 29.9092 624.859 30.6391C624.697 30.8541 624.471 31.0117 624.213 31.0889C623.956 31.1661 623.68 31.1588 623.427 31.0682C623.174 30.9776 622.956 30.8083 622.806 30.5851C622.656 30.362 622.581 30.0966 622.592 29.8279C622.802 24.9086 620.411 21.1919 615.485 18.781C612.989 17.6045 610.317 16.8462 607.576 16.5362C607.345 16.517 607.124 16.4345 606.936 16.2978C605.456 15.2141 604.252 13.7964 603.423 12.16C602.26 10.1347 601.364 5.12029 606.179 0.363822C606.371 0.173687 606.62 0.0505176 606.887 0.0125237C607.155 -0.0254703 607.428 0.023728 607.666 0.152845C607.904 0.281962 608.094 0.484144 608.208 0.7295C608.321 0.974856 608.353 1.25036 608.299 1.51529C608.275 1.65518 607.687 5.33517 613.166 8.24471C616.614 7.47994 623.84 6.13523 630.515 11.1578C633.805 13.6494 636.322 17.021 637.776 20.8829C639.415 25.3989 639.144 29.9413 636.993 34.0223C632.801 41.9723 626.583 44.0834 623.249 44.6342C623.182 44.6451 623.113 44.6506 623.044 44.6506ZM627.903 37.04C627.565 38.451 627.046 39.8125 626.358 41.0905C629.079 39.8916 632.299 37.5212 634.764 32.8462C637.052 28.5063 636.377 24.4127 635.407 21.7428C634.123 18.339 631.902 15.3679 629.001 13.173C622.951 8.62237 616.415 10.096 613.273 10.8047C612.986 10.8694 612.685 10.8315 612.423 10.6974L612.063 10.5134C608.384 8.57847 606.818 6.2413 606.175 4.36749C604.001 7.95422 605.545 10.7909 605.624 10.9324C605.638 10.9564 605.646 10.9717 605.658 10.9955C606.258 12.1886 607.112 13.2358 608.16 14.0634C611.06 14.4225 613.884 15.24 616.527 16.4852C621.407 18.8535 624.281 22.4683 624.966 27.0402C625.838 26.409 626.91 25.8921 628.048 25.9343C628.759 25.9551 629.455 26.1377 630.085 26.468C630.715 26.7984 631.261 27.2679 631.682 27.8409C632.104 28.4294 632.386 29.1063 632.508 29.8202C632.629 30.5342 632.586 31.2664 632.382 31.9613C631.518 35.0775 629.137 36.4977 627.903 37.04Z" fill="#7396BA"/>
<path d="M623.002 52.2872C622.721 52.287 622.447 52.1925 622.226 52.019C622.004 51.8454 621.847 51.6026 621.78 51.3294C621.323 49.4825 621.425 47.1671 621.791 43.2727C621.82 42.9643 621.961 42.6773 622.188 42.4665C624.904 39.9477 625.56 35.9518 625.566 35.9114C625.604 35.6721 625.71 35.4486 625.871 35.2679C626.033 35.0872 626.243 34.9569 626.476 34.8925C626.579 34.8625 629.181 34.0788 629.954 31.2884C630.057 30.9604 630.083 30.6131 630.03 30.2735C629.977 29.9339 629.847 29.6111 629.649 29.3301C629.452 29.0651 629.197 28.8485 628.904 28.6966C628.611 28.5447 628.287 28.4616 627.957 28.4536C627.943 28.4536 627.929 28.4536 627.916 28.4536C626.856 28.4536 625.404 29.9199 624.86 30.6404C624.698 30.8552 624.472 31.0127 624.214 31.0899C623.957 31.1671 623.681 31.1598 623.428 31.0692C623.175 30.9786 622.957 30.8094 622.807 30.5863C622.657 30.3633 622.582 30.098 622.593 29.8294C622.803 24.9099 620.411 21.193 615.485 18.781C613.045 17.6318 610.437 16.8802 607.76 16.5545C606.478 16.9246 604.452 19.0331 602.907 22.5127C600.877 27.0805 599.828 33.7902 602.971 38.9227C606.547 44.7636 613.629 43.5783 613.929 43.5254C614.258 43.4656 614.597 43.5389 614.872 43.7292C615.147 43.9195 615.335 44.2111 615.394 44.54C615.454 44.8689 615.381 45.208 615.191 45.4828C615 45.7576 614.709 45.9456 614.38 46.0054C614.011 46.0724 605.31 47.5719 600.821 40.2388C597.169 34.2735 598.314 26.6424 600.603 21.4893C602.446 17.3409 605.069 14.4868 607.448 14.0407C607.558 14.0201 607.67 14.0142 607.782 14.0233C610.814 14.3503 613.77 15.1822 616.527 16.4844C621.408 18.8528 624.282 22.4675 624.967 27.04C625.839 26.4098 626.907 25.8902 628.049 25.9339C628.759 25.9548 629.456 26.1374 630.086 26.4678C630.715 26.7982 631.261 27.2677 631.682 27.8407C632.105 28.4292 632.387 29.1061 632.508 29.8201C632.63 30.534 632.587 31.2662 632.383 31.9611C631.519 35.0776 629.138 36.4981 627.904 37.0396C627.568 38.4509 626.602 41.5879 624.257 43.969C623.959 47.2325 623.874 49.3014 624.226 50.7232C624.272 50.909 624.275 51.1027 624.235 51.2899C624.195 51.477 624.113 51.6525 623.995 51.8032C623.877 51.9538 623.726 52.0757 623.554 52.1594C623.382 52.2431 623.193 52.2865 623.002 52.2864L623.002 52.2872Z" fill="black"/>
<path d="M604.538 12.8235C604.317 12.8236 604.1 12.7658 603.908 12.656C603.716 12.5461 603.556 12.3879 603.444 12.1971C602.271 10.1971 601.334 5.15011 606.179 0.363808C606.371 0.173608 606.62 0.050397 606.888 0.0123988C607.155 -0.0255993 607.429 0.0236333 607.666 0.152815C607.904 0.281997 608.094 0.484267 608.208 0.72971C608.322 0.975154 608.354 1.25074 608.299 1.5157C608.258 1.74675 607.356 7.55975 618.941 10.3181C619.102 10.3564 619.254 10.4261 619.388 10.5232C619.523 10.6203 619.636 10.7428 619.723 10.8838C619.81 11.0249 619.868 11.1816 619.894 11.345C619.92 11.5085 619.914 11.6755 619.876 11.8366C619.837 11.9976 619.768 12.1495 619.67 12.2836C619.573 12.4177 619.451 12.5314 619.31 12.6182C619.169 12.7049 619.012 12.763 618.849 12.7892C618.685 12.8154 618.518 12.8091 618.357 12.7708C609.953 10.7699 607.092 7.09513 606.167 4.38092C604.005 7.96072 605.544 10.7898 605.624 10.9312C605.735 11.1223 605.794 11.3394 605.795 11.5606C605.795 11.7817 605.738 11.9992 605.628 12.191C605.518 12.3829 605.359 12.5424 605.168 12.6534C604.976 12.7644 604.759 12.8231 604.538 12.8235Z" fill="black"/>
<path d="M604.527 24.4737C604.91 23.0751 604.395 21.7156 603.378 21.4372C602.361 21.1588 601.226 22.067 600.843 23.4656C600.461 24.8642 600.975 26.2237 601.992 26.5021C603.009 26.7805 604.144 25.8723 604.527 24.4737Z" fill="black"/>
<path d="M615.446 27.4624C615.829 26.0638 615.315 24.7043 614.298 24.4259C613.28 24.1475 612.145 25.0557 611.763 26.4543C611.38 27.8529 611.894 29.2124 612.911 29.4908C613.929 29.7692 615.064 28.861 615.446 27.4624Z" fill="black"/>
<path d="M574.816 125.254C579.756 127.557 621.95 140.659 627.15 138.823L574.816 125.254Z" fill="white"/>
<path d="M625.683 140.263C624.179 140.263 621.671 139.976 617.213 139.034C612.856 138.114 607.091 136.651 600.543 134.804C588.616 131.438 576.842 127.589 574.283 126.396C574.131 126.327 573.995 126.229 573.881 126.107C573.767 125.985 573.679 125.842 573.621 125.685C573.563 125.529 573.537 125.363 573.543 125.196C573.55 125.029 573.59 124.866 573.66 124.715C573.731 124.564 573.831 124.428 573.954 124.316C574.077 124.203 574.221 124.117 574.378 124.061C574.535 124.005 574.702 123.98 574.869 123.989C575.035 123.998 575.198 124.039 575.348 124.111C577.77 125.241 589.602 129.098 601.227 132.378C617.78 137.048 625.255 138.156 626.731 137.635C627.046 137.523 627.392 137.542 627.694 137.686C627.996 137.83 628.228 138.088 628.339 138.403C628.451 138.718 628.432 139.065 628.288 139.366C628.144 139.668 627.886 139.9 627.571 140.012C626.961 140.204 626.322 140.289 625.683 140.263Z" fill="black"/>
<path d="M603.112 60.3124C600.792 60.3124 597.583 59.839 595.865 58.7801C594.866 58.164 594.238 57.2575 594.095 56.2281C593.992 55.4803 594.103 54.3334 595.222 53.1158C595.334 52.9939 595.469 52.8952 595.619 52.8254C595.77 52.7556 595.932 52.7161 596.097 52.7091C596.263 52.7021 596.428 52.7277 596.583 52.7845C596.739 52.8414 596.882 52.9283 597.004 53.0403C597.126 53.1523 597.224 53.2873 597.294 53.4374C597.364 53.5876 597.403 53.75 597.41 53.9154C597.417 54.0808 597.392 54.246 597.335 54.4015C597.278 54.5571 597.191 54.6999 597.079 54.8218C596.724 55.2081 596.552 55.5849 596.593 55.8832C596.633 56.0439 596.707 56.1942 596.81 56.3239C596.913 56.4536 597.042 56.5598 597.19 56.6353C598.273 57.3035 600.925 57.8089 603.233 57.7918H603.244C603.578 57.7905 603.899 57.9219 604.136 58.1573C604.374 58.3926 604.508 58.7126 604.509 59.0469C604.511 59.3811 604.379 59.7022 604.144 59.9396C603.908 60.1769 603.588 60.311 603.254 60.3124C603.207 60.3124 603.16 60.3124 603.112 60.3124Z" fill="black"/>
<path d="M633.405 125.257C633.206 125.257 633.009 125.209 632.832 125.119C632.654 125.028 632.5 124.897 632.383 124.735C632.267 124.573 632.19 124.386 632.159 124.189C632.129 123.992 632.145 123.791 632.208 123.601C633.96 118.29 634.475 113.814 634.967 105.791C634.982 105.561 635.059 105.339 635.19 105.15C635.321 104.96 635.502 104.811 635.713 104.717C635.923 104.623 636.155 104.589 636.384 104.618C636.613 104.647 636.829 104.738 637.01 104.881C641.063 108.102 650.968 112.432 655.453 109.227C656.715 108.324 658.272 104.907 654.52 92.1581C652.058 83.7969 648.246 74.6549 646.198 69.7434C645.835 68.8736 645.524 68.1261 645.28 67.5287C642.499 60.7142 636.638 59.226 631.467 57.9128C626.995 56.7773 622.771 55.705 621.774 51.3052C621.733 51.1423 621.725 50.9729 621.751 50.8069C621.776 50.6409 621.835 50.4817 621.923 50.3386C622.011 50.1955 622.126 50.0714 622.263 49.9736C622.399 49.8758 622.554 49.8063 622.718 49.7692C622.882 49.7321 623.051 49.7281 623.217 49.7574C623.382 49.7867 623.54 49.8488 623.681 49.9401C623.822 50.0313 623.943 50.1497 624.038 50.2885C624.132 50.4273 624.198 50.5836 624.232 50.7482C624.856 53.5021 627.623 54.3366 632.087 55.4698C637.552 56.8576 644.352 58.5843 647.613 66.5763C647.856 67.1699 648.165 67.9103 648.524 68.7732C656.23 87.2504 663.253 106.749 656.919 111.277C654.26 113.178 650.271 113.395 645.382 111.904C642.549 111.024 639.845 109.775 637.337 108.19C636.864 115.076 636.266 119.342 634.601 124.391C634.518 124.643 634.358 124.862 634.143 125.017C633.929 125.173 633.67 125.256 633.405 125.257Z" fill="black"/>
<path d="M656.186 110.253C658.572 108.173 660.737 101.169 660.74 99.0031C660.763 81.2963 648.563 67.6807 643.615 60.5228C640.885 51.9912 630.735 48.2228 630.232 48.2102C626.02 48.1039 619.612 58.2083 622.294 61.3913C623.381 62.6817 633.668 65.3566 634.658 68.8668C635.722 74.8172 637.572 87.1977 643.053 95.8717" fill="white"/>
<path d="M656.186 111.513C655.929 111.513 655.678 111.435 655.467 111.289C655.256 111.143 655.095 110.935 655.005 110.695C654.915 110.455 654.9 110.193 654.963 109.944C655.026 109.695 655.164 109.471 655.357 109.302C657.319 107.593 659.477 101.004 659.479 99.0014C659.498 84.185 650.802 72.425 645.047 64.6433C644.138 63.4151 643.281 62.2551 642.578 61.2382C642.507 61.1362 642.452 61.0242 642.414 60.9059C639.927 53.1343 630.921 49.7593 630.087 49.4702C628.356 49.5513 625.519 52.417 623.934 55.7155C622.907 57.854 622.63 59.7916 623.239 60.5566C623.584 60.8496 625.134 61.4951 626.383 62.0154C631.127 63.9917 635.115 65.8456 635.871 68.5236C635.882 68.5631 635.892 68.6035 635.898 68.6438C635.976 69.0809 636.059 69.5527 636.147 70.0551C637.204 76.1061 639.171 87.3693 644.118 95.1975C644.208 95.3374 644.269 95.4938 644.299 95.6576C644.328 95.8214 644.325 95.9894 644.289 96.152C644.253 96.3145 644.185 96.4683 644.09 96.6045C643.994 96.7407 643.872 96.8566 643.731 96.9455C643.591 97.0344 643.434 97.0945 643.27 97.1225C643.106 97.1504 642.938 97.1456 642.776 97.1082C642.613 97.0709 642.46 97.0018 642.325 96.9049C642.189 96.8081 642.075 96.6854 641.987 96.5439C636.774 88.2944 634.751 76.7116 633.663 70.4888C633.581 70.0175 633.504 69.5732 633.43 69.1595C632.867 67.4474 628.026 65.4303 625.414 64.3423C623.04 63.3532 621.874 62.8491 621.329 62.2025C619.971 60.5902 620.09 57.8989 621.663 54.6241C623.505 50.7891 627.004 46.9482 630.165 46.9482C630.198 46.9482 630.23 46.9482 630.263 46.9495C630.926 46.9663 633.834 48.1047 636.799 50.1306C639.573 52.0265 643.188 55.262 644.755 59.9551C645.413 60.9003 646.186 61.9444 647.073 63.1448C652.664 70.7041 662.02 83.356 662 99.005C661.997 101.285 659.836 108.743 657.013 111.203C656.784 111.403 656.49 111.513 656.186 111.513Z" fill="black"/>
<path d="M634.658 70.1255C634.405 70.1255 634.158 70.0494 633.948 69.907C633.739 69.7645 633.578 69.5624 633.485 69.3269C633.392 69.0913 633.373 68.8334 633.429 68.5865C633.485 68.3396 633.614 68.1154 633.799 67.9429L642.756 59.599C643 59.3712 643.325 59.2498 643.659 59.2617C643.993 59.2735 644.309 59.4175 644.537 59.6621C644.765 59.9067 644.886 60.2318 644.874 60.5659C644.863 60.8999 644.718 61.2156 644.474 61.4434L635.517 69.7873C635.284 70.005 634.977 70.1259 634.658 70.1255Z" fill="black"/>
<path d="M636.224 107.128C635.964 107.129 635.709 107.048 635.497 106.897C633.162 105.243 627.845 100.262 626.52 98.081C626.351 97.7955 626.3 97.4546 626.381 97.1324C626.461 96.8102 626.666 96.5327 626.949 96.3603C627.233 96.1879 627.574 96.1346 627.897 96.2118C628.22 96.289 628.499 96.4906 628.674 96.7727C629.74 98.5274 634.665 103.219 636.954 104.841C637.173 104.995 637.337 105.215 637.422 105.469C637.507 105.723 637.509 105.998 637.428 106.253C637.346 106.508 637.186 106.73 636.969 106.888C636.753 107.046 636.492 107.131 636.224 107.13V107.128Z" fill="black"/>
<path d="M628.168 159.429C628.132 159.429 628.095 159.427 628.058 159.424C621.761 158.882 616.09 152.374 615.676 145.213C615.664 145.047 615.686 144.88 615.739 144.722C615.792 144.563 615.877 144.418 615.987 144.292C616.097 144.167 616.231 144.065 616.381 143.992C616.531 143.919 616.694 143.876 616.86 143.866C617.027 143.857 617.194 143.88 617.351 143.936C617.509 143.991 617.653 144.077 617.777 144.189C617.901 144.3 618.002 144.436 618.073 144.587C618.144 144.737 618.185 144.901 618.192 145.068C618.538 151.048 623.156 156.473 628.274 156.913C628.598 156.941 628.898 157.092 629.113 157.336C629.327 157.58 629.439 157.897 629.426 158.222C629.412 158.547 629.273 158.853 629.039 159.078C628.805 159.303 628.492 159.429 628.168 159.429H628.168Z" fill="black"/>
<path d="M569.392 151.348C569.058 151.348 568.737 151.215 568.501 150.979C568.264 150.743 568.132 150.422 568.132 150.088C568.132 149.754 568.264 149.433 568.501 149.197C568.737 148.96 569.058 148.828 569.392 148.828C572.989 148.828 575.907 147.834 578.454 142.986C578.609 142.69 578.876 142.468 579.195 142.368C579.514 142.269 579.86 142.301 580.156 142.456C580.452 142.611 580.674 142.878 580.773 143.197C580.872 143.516 580.841 143.862 580.686 144.158C577.357 150.494 573.109 151.348 569.392 151.348Z" fill="black"/>
<path d="M610.377 54.998C607.754 55.0117 605.137 54.7584 602.566 54.2418C600.031 53.7135 599.139 52.1724 599.15 50.9065C599.165 49.0661 600.883 47.5515 603.525 47.048C603.688 47.015 603.856 47.0147 604.02 47.0471C604.183 47.0796 604.339 47.1442 604.477 47.2371C604.615 47.33 604.734 47.4495 604.826 47.5886C604.918 47.7276 604.981 47.8835 605.012 48.0473C605.044 48.211 605.042 48.3793 605.008 48.5424C604.973 48.7055 604.907 48.8602 604.813 48.9975C604.718 49.1348 604.597 49.2521 604.457 49.3424C604.317 49.4327 604.161 49.4944 603.997 49.5238C602.262 49.8544 601.673 50.6265 601.67 50.9279C601.668 51.1411 602.05 51.5595 603.08 51.7742C607.452 52.6845 612.654 52.7135 617.727 51.8559C617.891 51.8274 618.058 51.8315 618.22 51.8679C618.382 51.9044 618.536 51.9725 618.671 52.0684C618.807 52.1642 618.922 52.2859 619.011 52.4265C619.099 52.567 619.159 52.7237 619.186 52.8874C619.214 53.0511 619.209 53.2187 619.172 53.3805C619.135 53.5423 619.066 53.6951 618.969 53.8302C618.873 53.9653 618.75 54.08 618.609 54.1677C618.468 54.2554 618.311 54.3143 618.147 54.3412C615.58 54.7755 612.981 54.9952 610.377 54.998Z" fill="black"/>
<path d="M573.421 126.479C575.963 125.461 580.329 125.366 582.365 126.456C585.644 128.211 587.108 135.072 585.927 134.788C584.495 134.444 586.181 137.557 584.299 137.266C582.934 137.054 583.054 139.091 581.354 138.767C579.571 138.427 579.862 140.286 578.498 140.009C577.134 139.732 575.221 138.19 573.905 137.935C572.52 137.666 571.321 138.265 569.672 138.523C568.024 138.781 566.759 136.933 566.417 136.329L573.421 126.479Z" fill="white"/>
<path d="M578.771 141.297C578.595 141.297 578.419 141.278 578.247 141.242C577.373 141.064 576.455 140.554 575.567 140.061C574.891 139.685 574.125 139.259 573.665 139.17C573.012 139.044 572.34 139.209 571.489 139.42C571.011 139.538 570.468 139.672 569.867 139.766C567.286 140.168 565.627 137.49 565.321 136.949C565.202 136.741 565.146 136.503 565.158 136.263C565.171 136.024 565.251 135.793 565.39 135.598L572.395 125.75C572.535 125.553 572.729 125.4 572.953 125.31C576.302 123.968 580.914 124.251 582.96 125.345C584.994 126.434 586.19 128.841 586.721 130.18C587.322 131.694 587.869 133.869 587.432 135.018C587.357 135.227 587.239 135.418 587.086 135.579C586.933 135.741 586.748 135.868 586.542 135.953C586.55 136.589 586.525 137.483 585.835 138.084C585.61 138.272 585.347 138.409 585.065 138.485C584.782 138.561 584.487 138.575 584.198 138.525C584.139 138.59 584.062 138.688 584.005 138.76C583.604 139.267 582.771 140.321 581.118 140.005C581.047 139.987 580.972 139.982 580.899 139.99C580.823 140.068 580.751 140.151 580.684 140.238C580.387 140.598 579.815 141.297 578.771 141.297ZM573.188 136.605C573.509 136.604 573.83 136.635 574.145 136.696C574.999 136.861 575.909 137.368 576.792 137.858C577.431 138.213 578.15 138.613 578.643 138.747C578.673 138.712 578.705 138.673 578.731 138.64C579.112 138.175 579.905 137.207 581.59 137.527C581.634 137.538 581.681 137.542 581.727 137.539C581.837 137.433 581.938 137.318 582.028 137.194C582.364 136.769 582.956 136.02 584.021 135.988C584.021 135.95 584.021 135.915 584.02 135.883C584.01 135.261 583.997 134.409 584.688 133.856C584.803 133.764 584.93 133.689 585.066 133.632C584.912 132.1 583.663 128.58 581.77 127.567C580.218 126.737 576.535 126.736 574.223 127.525L567.953 136.342C568.384 136.87 568.968 137.355 569.478 137.276C569.97 137.199 570.435 137.084 570.885 136.973C571.635 136.757 572.408 136.633 573.188 136.606V136.605Z" fill="black"/>
<path d="M571.5 118.5C571.5 118.5 566.5 124.5 561.5 123" stroke="black" stroke-width="3" stroke-linecap="round"/>
</g>
<path d="M237.5 98.5H242.5L253.5 100L254 108L251 114H238L236.5 112.5L234.5 108V101.5L237.5 98.5Z" fill="white"/>
<path d="M106.5 257C155.5 295.5 153.5 343 217.5 374.5C281.5 406 355 323.5 334.5 317.5C314 311.5 315.932 360.543 357 353C412.5 339 431.5 194.5 358 173.5C340.308 168.782 321 188.5 336.5 201C352 213.5 400.5 173.5 387.93 130.774C371.538 86.1519 234 76.3514 236.5 101.5C237.829 114.865 301.539 109.162 344.198 94.1102C388.127 78.6102 424.198 27.1102 399.698 31.6102C367.879 37.4544 421.82 95.4493 452.521 105.649C484.486 116.268 506.586 83.0342 535.861 83.4325C542.709 83.5257 551.236 84.7359 554.551 91.3669" stroke="black" stroke-width="3" stroke-linecap="round"/>
<path d="M60.5 251.141C69.0072 245.026 79.1013 244.818 88.5 247.699" stroke="black" stroke-width="3" stroke-linecap="round"/>
<path d="M246.5 105L239 114L235 108.5L236.5 104.5H242.5L246.5 105Z" fill="white"/>
<path d="M238.047 116.658C237.606 116.658 237.184 116.483 236.872 116.171C236.56 115.86 236.385 115.437 236.385 114.996C236.385 114.42 235.807 113.451 235.248 112.513C234.537 111.322 233.731 109.968 233.354 108.372C232.612 105.223 231.919 100.709 234.459 97.874C236.132 96.0058 238.839 95.2868 242.507 95.7381C250.85 96.7642 255.223 97.5844 255.632 103.702C255.835 106.74 255.111 108.71 254.472 110.448C254.014 111.695 253.618 112.769 253.618 114.144C253.618 114.585 253.443 115.008 253.131 115.32C252.82 115.631 252.397 115.806 251.956 115.806C251.516 115.806 251.093 115.631 250.781 115.32C250.47 115.008 250.295 114.585 250.295 114.144C250.295 112.177 250.832 110.714 251.353 109.3C251.928 107.734 252.472 106.256 252.316 103.924C252.117 100.958 251.153 100.151 242.102 99.038C239.579 98.7277 237.839 99.0826 236.934 100.093C235.258 101.963 236.26 106.212 236.589 107.609C236.848 108.705 237.486 109.775 238.102 110.809C238.929 112.195 239.709 113.504 239.709 114.995C239.709 115.214 239.666 115.43 239.582 115.632C239.499 115.833 239.376 116.017 239.222 116.171C239.068 116.326 238.885 116.448 238.683 116.532C238.482 116.615 238.265 116.658 238.047 116.658Z" fill="black"/>
<path d="M234.174 110.456C233.813 109.794 233.6 109.063 233.548 108.311C233.497 107.559 233.609 106.805 233.876 106.101C234.647 104.118 236.616 102.628 239.727 101.673C241.071 101.26 242.696 101.447 244.579 101.663C245.451 101.763 246.353 101.866 247.226 101.904C247.603 101.92 247.964 102.065 248.248 102.313C248.533 102.562 248.724 102.9 248.79 103.272C248.834 103.515 249.174 105.696 247.74 107.451C246.88 108.504 245.628 109.126 244.012 109.307L243.713 109.691C243.579 109.863 243.413 110.008 243.223 110.116C243.033 110.223 242.824 110.293 242.608 110.32C242.391 110.347 242.171 110.331 241.961 110.273C241.751 110.215 241.554 110.116 241.381 109.982C241.209 109.848 241.065 109.682 240.957 109.492C240.849 109.302 240.78 109.093 240.753 108.876C240.726 108.659 240.742 108.44 240.8 108.229C240.857 108.019 240.956 107.822 241.09 107.649L241.845 106.679C241.996 106.485 242.189 106.326 242.41 106.215C242.63 106.104 242.872 106.044 243.119 106.038C243.808 106.022 244.722 105.89 245.167 105.345C245.23 105.267 245.285 105.181 245.33 105.091C244.948 105.052 244.571 105.008 244.199 104.966C242.815 104.807 241.382 104.643 240.702 104.851C238.696 105.467 237.376 106.327 236.986 107.273C236.893 107.519 236.85 107.781 236.862 108.043C236.874 108.306 236.94 108.563 237.055 108.799L237.041 108.772L234.174 110.456Z" fill="black"/>
<path d="M569 111C569.5 113.499 548 111.283 548 118.5C548 121.5 554 121 554 121" stroke="black" stroke-width="3" stroke-linecap="round"/>
<path d="M568.707 106.471C569.52 106.633 570.31 106.107 570.472 105.294C570.635 104.482 570.108 103.692 569.296 103.529L568.707 106.471ZM549.559 109.934C550.351 110.177 551.19 109.733 551.434 108.941C551.677 108.149 551.233 107.31 550.441 107.066L549.559 109.934ZM569.002 105C569.296 103.529 569.296 103.529 569.295 103.529C569.295 103.529 569.295 103.529 569.294 103.529C569.293 103.529 569.292 103.528 569.291 103.528C569.288 103.528 569.283 103.527 569.278 103.526C569.266 103.523 569.25 103.52 569.228 103.516C569.184 103.507 569.12 103.494 569.036 103.478C568.868 103.445 568.623 103.398 568.311 103.339C567.687 103.221 566.796 103.055 565.722 102.866C563.576 102.489 560.692 102.016 557.755 101.637C554.831 101.26 551.801 100.969 549.383 100.969C548.182 100.969 547.057 101.04 546.145 101.237C545.689 101.336 545.224 101.478 544.811 101.699C544.402 101.917 543.939 102.268 543.658 102.829L546.342 104.171C546.249 104.357 546.137 104.391 546.223 104.346C546.304 104.303 546.476 104.235 546.779 104.169C547.384 104.038 548.263 103.969 549.383 103.969C551.606 103.969 554.483 104.24 557.371 104.613C560.247 104.984 563.083 105.448 565.203 105.821C566.261 106.007 567.14 106.17 567.752 106.286C568.059 106.344 568.298 106.391 568.461 106.422C568.543 106.438 568.605 106.451 568.646 106.459C568.667 106.463 568.682 106.466 568.693 106.468C568.698 106.469 568.702 106.47 568.704 106.47C568.705 106.47 568.706 106.471 568.707 106.471C568.707 106.471 568.707 106.471 568.707 106.471C568.707 106.471 568.707 106.471 569.002 105ZM543.658 102.829C543.003 104.14 543.258 105.396 543.893 106.368C544.473 107.254 545.368 107.926 546.158 108.406C546.973 108.903 547.822 109.282 548.451 109.533C548.769 109.661 549.039 109.759 549.233 109.826C549.33 109.859 549.408 109.885 549.463 109.903C549.491 109.912 549.513 109.919 549.529 109.924C549.537 109.927 549.544 109.929 549.549 109.93C549.551 109.931 549.553 109.932 549.555 109.932C549.556 109.933 549.557 109.933 549.557 109.933C549.558 109.933 549.558 109.933 549.558 109.933C549.559 109.934 549.559 109.934 550 108.5C550.441 107.066 550.442 107.066 550.442 107.067C550.442 107.067 550.442 107.067 550.442 107.067C550.443 107.067 550.443 107.067 550.443 107.067C550.443 107.067 550.443 107.067 550.442 107.067C550.441 107.066 550.438 107.065 550.434 107.064C550.425 107.061 550.411 107.057 550.392 107.05C550.353 107.038 550.293 107.018 550.215 106.991C550.058 106.937 549.833 106.855 549.565 106.748C549.022 106.531 548.34 106.222 547.718 105.844C547.069 105.449 546.621 105.058 546.404 104.726C546.243 104.479 546.247 104.36 546.342 104.171L543.658 102.829Z" fill="black"/>
<defs>
<clipPath id="clip0_997:38874">
<rect width="43.6692" height="46.2798" fill="white" transform="translate(88.1239 158.643) rotate(-49.2323)"/>
</clipPath>
<clipPath id="clip1_997:38874">
<rect width="113" height="271" fill="white" transform="translate(549)"/>
</clipPath>
</defs>
</svg>
